<?xml version="1.0" encoding="utf-8"?>
<!-- Generator: Adobe Illustrator 16.2.0, SVG Export Plug-In . SVG Version: 6.00 Build 0)  -->
<!DOCTYPE svg PUBLIC "-//W3C//DTD SVG 1.1//EN" "http://www.w3.org/Graphics/SVG/1.1/DTD/svg11.dtd">
<svg version="1.1" id="Layer_1" xmlns="http://www.w3.org/2000/svg" xmlns:xlink="http://www.w3.org/1999/xlink" x="0px" y="0px"
	 width="262.612px" height="53.426px" viewBox="0 0 262.612 53.426" enable-background="new 0 0 262.612 53.426"
	 xml:space="preserve">
<g>
	
		<polygon fill-rule="evenodd" clip-rule="evenodd" fill="#C41230" stroke="#C41230" stroke-width="0.216" stroke-miterlimit="2.6131" points="
		1.551,39.598 260.348,39.598 260.348,39.832 1.551,39.832 1.551,39.598 	"/>
	<path fill-rule="evenodd" clip-rule="evenodd" fill="#C41230" d="M7.117,50.003v0.733c-0.031,0.016-0.064,0.033-0.1,0.053
		c-0.035,0.019-0.072,0.04-0.111,0.063c-0.162,0.086-0.356,0.161-0.582,0.227c-0.225,0.066-0.48,0.1-0.768,0.1
		c-0.861,0-1.561-0.261-2.096-0.78s-0.803-1.168-0.803-1.944c0-0.792,0.268-1.445,0.803-1.962c0.535-0.516,1.23-0.773,2.084-0.773
		c0.334,0,0.613,0.033,0.838,0.099s0.408,0.138,0.547,0.215c0.039,0.023,0.074,0.045,0.105,0.064s0.059,0.037,0.082,0.053v0.687
		c-0.334-0.24-0.619-0.394-0.855-0.46c-0.238-0.066-0.461-0.099-0.67-0.099c-0.582,0-1.093,0.188-1.531,0.564
		s-0.658,0.914-0.658,1.612c0,0.683,0.212,1.217,0.635,1.601c0.423,0.385,0.918,0.576,1.484,0.576c0.342,0,0.645-0.063,0.908-0.191
		S6.922,50.166,7.117,50.003L7.117,50.003z M10.725,51.19c-0.729-0.008-1.369-0.251-1.92-0.729
		c-0.551-0.477-0.826-1.146-0.826-2.008c0-0.761,0.252-1.406,0.756-1.938c0.505-0.531,1.168-0.797,1.99-0.797
		c0.831,0,1.497,0.266,1.998,0.797c0.5,0.532,0.75,1.178,0.75,1.938s-0.25,1.405-0.75,1.933c-0.501,0.527-1.167,0.792-1.998,0.792
		V51.19L10.725,51.19z M10.725,50.631c0.637,0,1.13-0.227,1.479-0.681c0.349-0.454,0.524-0.953,0.524-1.496
		c0-0.551-0.176-1.052-0.524-1.502c-0.35-0.45-0.843-0.675-1.479-0.675c-0.636,0-1.129,0.225-1.478,0.675s-0.524,0.951-0.524,1.502
		c0,0.552,0.176,1.052,0.524,1.502S10.089,50.631,10.725,50.631L10.725,50.631z M15.568,46.801c0.133-0.232,0.271-0.421,0.42-0.564
		c0.147-0.144,0.295-0.254,0.441-0.331c0.141-0.07,0.283-0.119,0.432-0.146c0.147-0.026,0.287-0.04,0.418-0.04
		c0.412,0,0.732,0.108,0.961,0.325c0.229,0.218,0.375,0.462,0.438,0.733c0.107-0.201,0.229-0.368,0.36-0.5s0.265-0.237,0.396-0.314
		c0.194-0.108,0.383-0.177,0.564-0.204c0.184-0.026,0.332-0.04,0.449-0.04c0.077,0,0.18,0.008,0.309,0.022
		c0.127,0.016,0.266,0.059,0.413,0.129c0.201,0.093,0.39,0.273,0.564,0.541s0.262,0.681,0.262,1.239v3.33h-0.698v-3.33
		c0-0.077-0.004-0.168-0.012-0.273c-0.008-0.104-0.023-0.211-0.047-0.32c-0.047-0.193-0.14-0.372-0.279-0.535
		s-0.361-0.244-0.664-0.244c-0.062,0-0.128,0.006-0.197,0.018c-0.07,0.012-0.136,0.029-0.198,0.052
		c-0.279,0.094-0.535,0.295-0.769,0.605c-0.232,0.311-0.35,0.753-0.35,1.327v2.701h-0.697v-3.295c0-0.062-0.002-0.124-0.006-0.186
		c-0.004-0.063-0.01-0.125-0.018-0.187c-0.023-0.257-0.102-0.493-0.233-0.711c-0.132-0.217-0.372-0.325-0.722-0.325
		c-0.419,0-0.761,0.174-1.025,0.523c-0.263,0.35-0.426,0.733-0.488,1.152c-0.008,0.055-0.014,0.109-0.018,0.164
		c-0.004,0.054-0.006,0.108-0.006,0.162v2.701h-0.697v-5.053h0.697V46.801L15.568,46.801z M23.719,45.928h0.652v0.896
		c0.154-0.295,0.383-0.553,0.686-0.774c0.303-0.221,0.703-0.331,1.199-0.331c0.8,0,1.435,0.258,1.904,0.773
		c0.469,0.517,0.704,1.17,0.704,1.962c0,0.893-0.262,1.569-0.786,2.032c-0.523,0.461-1.123,0.692-1.799,0.692
		c-0.396,0-0.724-0.068-0.983-0.204c-0.261-0.136-0.468-0.285-0.622-0.448c-0.055-0.062-0.104-0.12-0.146-0.175
		c-0.043-0.054-0.08-0.104-0.11-0.151v3.226h-0.698V45.928L23.719,45.928z M26.279,50.631c0.598,0,1.054-0.215,1.368-0.646
		s0.472-0.941,0.472-1.531c0-0.078-0.004-0.155-0.012-0.232c-0.008-0.078-0.016-0.155-0.023-0.233
		c-0.078-0.427-0.264-0.818-0.559-1.176c-0.295-0.356-0.741-0.535-1.339-0.535c-0.566,0-1.011,0.219-1.333,0.657
		s-0.482,0.945-0.482,1.52c0,0.683,0.189,1.217,0.57,1.601C25.321,50.439,25.768,50.631,26.279,50.631L26.279,50.631z M32.683,51.19
		c-0.729-0.008-1.37-0.251-1.921-0.729c-0.551-0.477-0.826-1.146-0.826-2.008c0-0.761,0.252-1.406,0.756-1.938
		c0.506-0.531,1.169-0.797,1.991-0.797c0.831,0,1.496,0.266,1.997,0.797c0.5,0.532,0.751,1.178,0.751,1.938
		s-0.251,1.405-0.751,1.933c-0.501,0.527-1.166,0.792-1.997,0.792V51.19L32.683,51.19z M32.683,50.631
		c0.637,0,1.13-0.227,1.479-0.681c0.349-0.454,0.523-0.953,0.523-1.496c0-0.551-0.175-1.052-0.523-1.502
		c-0.35-0.45-0.843-0.675-1.479-0.675c-0.636,0-1.13,0.225-1.479,0.675s-0.524,0.951-0.524,1.502c0,0.552,0.176,1.052,0.524,1.502
		S32.047,50.631,32.683,50.631L32.683,50.631z M36.828,50.98v-5.053h0.697v0.838c0.031-0.054,0.07-0.12,0.117-0.197
		s0.108-0.159,0.186-0.244c0.133-0.148,0.313-0.285,0.542-0.414c0.229-0.128,0.515-0.191,0.856-0.191
		c0.559,0,0.99,0.174,1.298,0.523c0.306,0.35,0.46,0.85,0.46,1.502v3.236h-0.699v-3.144c0-0.069-0.002-0.142-0.006-0.215
		c-0.004-0.074-0.01-0.146-0.018-0.216c-0.031-0.279-0.12-0.537-0.268-0.774c-0.147-0.236-0.431-0.354-0.85-0.354
		c-0.489,0-0.867,0.186-1.135,0.559c-0.269,0.373-0.426,0.784-0.472,1.234c0,0.047-0.003,0.093-0.007,0.14
		c-0.004,0.046-0.006,0.093-0.006,0.14v2.631H36.828L36.828,50.98z M46.77,49.386l0.536,0.268c-0.202,0.411-0.489,0.769-0.862,1.071
		c-0.371,0.303-0.861,0.454-1.467,0.454c-0.822,0-1.461-0.277-1.914-0.833c-0.455-0.555-0.682-1.186-0.682-1.892
		c0-0.124,0.008-0.254,0.023-0.39c0.016-0.137,0.043-0.274,0.081-0.414c0.132-0.48,0.394-0.923,0.786-1.326
		c0.392-0.404,0.961-0.605,1.705-0.605c0.668,0,1.183,0.188,1.543,0.564c0.361,0.376,0.596,0.794,0.705,1.251
		c0.03,0.109,0.052,0.218,0.063,0.326s0.018,0.214,0.018,0.314v0.338h-4.18c0,0.008,0,0.013,0,0.017s0,0.007,0,0.007
		c0,0.008,0,0.013,0,0.018c0,0.004,0,0.009,0,0.017c0,0.07,0.004,0.14,0.012,0.21c0.007,0.07,0.016,0.144,0.022,0.221
		c0.078,0.403,0.267,0.776,0.565,1.118s0.716,0.512,1.251,0.512c0.133,0,0.287-0.015,0.466-0.046s0.365-0.113,0.56-0.245
		c0.132-0.093,0.264-0.215,0.396-0.366S46.654,49.626,46.77,49.386L46.77,49.386z M43.184,47.953h3.424
		c-0.016-0.427-0.166-0.813-0.448-1.158c-0.284-0.345-0.674-0.518-1.171-0.518c-0.488,0-0.895,0.159-1.217,0.477
		C43.45,47.072,43.254,47.472,43.184,47.953L43.184,47.953z M48.703,50.98v-5.053h0.698v0.838c0.03-0.054,0.069-0.12,0.116-0.197
		s0.108-0.159,0.186-0.244c0.133-0.148,0.313-0.285,0.542-0.414c0.229-0.128,0.515-0.191,0.856-0.191
		c0.559,0,0.99,0.174,1.297,0.523s0.46,0.85,0.46,1.502v3.236H52.16v-3.144c0-0.069-0.002-0.142-0.006-0.215
		c-0.004-0.074-0.01-0.146-0.018-0.216c-0.031-0.279-0.12-0.537-0.268-0.774c-0.147-0.236-0.431-0.354-0.85-0.354
		c-0.489,0-0.867,0.186-1.136,0.559c-0.268,0.373-0.425,0.784-0.472,1.234c0,0.047-0.002,0.093-0.006,0.14
		c-0.004,0.046-0.005,0.093-0.005,0.14v2.631H48.703L48.703,50.98z M54.744,50.98v-4.494H53.93v-0.559h0.814v-1.955h0.699v1.955
		h0.979v0.559h-0.979v4.494H54.744L54.744,50.98z M57.004,49.944l0.569-0.303c0.086,0.248,0.233,0.476,0.442,0.681
		c0.21,0.206,0.486,0.309,0.827,0.309c0.333,0,0.594-0.091,0.78-0.273c0.186-0.183,0.279-0.425,0.279-0.728
		c0-0.271-0.082-0.478-0.244-0.617c-0.164-0.14-0.346-0.244-0.548-0.314c-0.069-0.022-0.14-0.046-0.21-0.069
		c-0.069-0.023-0.135-0.043-0.197-0.059c-0.008,0-0.018-0.002-0.029-0.006s-0.025-0.01-0.041-0.017
		c-0.35-0.109-0.67-0.261-0.96-0.455c-0.291-0.193-0.437-0.512-0.437-0.954c0-0.45,0.156-0.8,0.472-1.048
		c0.313-0.248,0.696-0.372,1.146-0.372c0.108,0,0.228,0.009,0.354,0.028c0.129,0.02,0.263,0.064,0.402,0.134
		c0.147,0.07,0.291,0.174,0.431,0.309c0.14,0.136,0.268,0.324,0.384,0.564l-0.523,0.28c-0.094-0.233-0.238-0.418-0.437-0.554
		s-0.421-0.203-0.67-0.203c-0.271,0-0.483,0.077-0.634,0.232c-0.152,0.155-0.228,0.346-0.228,0.57c0,0.241,0.069,0.414,0.21,0.519
		c0.139,0.104,0.326,0.2,0.559,0.285c0.039,0.008,0.08,0.02,0.122,0.035s0.087,0.031,0.134,0.046
		c0.039,0.016,0.08,0.029,0.123,0.041c0.042,0.012,0.083,0.025,0.121,0.041c0.357,0.116,0.684,0.283,0.979,0.501
		c0.295,0.217,0.442,0.57,0.442,1.059c0,0.07-0.006,0.144-0.018,0.222c-0.012,0.077-0.029,0.155-0.052,0.232
		c-0.086,0.288-0.265,0.546-0.536,0.774c-0.272,0.229-0.687,0.344-1.245,0.344c-0.109,0-0.243-0.012-0.402-0.035
		s-0.324-0.077-0.494-0.163c-0.164-0.086-0.322-0.21-0.479-0.372C57.244,50.445,57.111,50.224,57.004,49.944L57.004,49.944z
		 M70.193,46.824v-0.896h0.652v5.053h-0.652v-0.861c-0.201,0.364-0.471,0.633-0.809,0.804c-0.338,0.17-0.689,0.256-1.054,0.256
		c-0.683,0-1.292-0.231-1.827-0.692c-0.536-0.463-0.805-1.14-0.805-2.032c0-0.761,0.24-1.406,0.717-1.938
		c0.478-0.531,1.119-0.797,1.927-0.797c0.124,0,0.254,0.009,0.39,0.028c0.137,0.02,0.277,0.057,0.426,0.11
		c0.186,0.078,0.37,0.192,0.553,0.344C69.893,46.354,70.055,46.561,70.193,46.824L70.193,46.824z M68.331,50.631
		c0.521,0,0.96-0.191,1.321-0.576c0.361-0.384,0.541-0.918,0.541-1.601c0-0.574-0.162-1.081-0.488-1.52s-0.776-0.657-1.351-0.657
		c-0.575,0-1.036,0.211-1.386,0.634c-0.35,0.424-0.523,0.938-0.523,1.543c0,0.566,0.167,1.071,0.5,1.514
		C67.279,50.41,67.741,50.631,68.331,50.631L68.331,50.631z M72.568,50.98v-5.053h0.699v0.838c0.031-0.054,0.07-0.12,0.116-0.197
		s0.108-0.159,0.187-0.244c0.132-0.148,0.313-0.285,0.541-0.414c0.229-0.128,0.514-0.191,0.855-0.191
		c0.559,0,0.992,0.174,1.299,0.523s0.459,0.85,0.459,1.502v3.236h-0.698v-3.144c0-0.069-0.001-0.142-0.005-0.215
		c-0.004-0.074-0.011-0.146-0.018-0.216c-0.031-0.279-0.121-0.537-0.268-0.774c-0.148-0.236-0.432-0.354-0.851-0.354
		c-0.489,0-0.867,0.186-1.136,0.559c-0.268,0.373-0.424,0.784-0.471,1.234c0,0.047-0.002,0.093-0.006,0.14
		c-0.004,0.046-0.006,0.093-0.006,0.14v2.631H72.568L72.568,50.98z M83.268,50.98h-0.652v-0.861
		c-0.201,0.364-0.471,0.633-0.809,0.804c-0.338,0.17-0.688,0.256-1.053,0.256c-0.684,0-1.293-0.231-1.828-0.692
		c-0.535-0.463-0.804-1.14-0.804-2.032c0-0.761,0.243-1.406,0.728-1.938c0.485-0.531,1.127-0.797,1.928-0.797
		c0.123,0,0.271,0.014,0.441,0.04c0.172,0.027,0.346,0.084,0.524,0.169c0.147,0.078,0.293,0.181,0.437,0.309s0.273,0.297,0.39,0.507
		v-4.308h0.698V50.98L83.268,50.98z M80.754,50.631c0.527,0,0.97-0.191,1.326-0.576c0.357-0.384,0.535-0.918,0.535-1.601
		c0-0.574-0.162-1.081-0.488-1.52s-0.776-0.657-1.35-0.657c-0.575,0-1.037,0.209-1.387,0.628c-0.349,0.42-0.523,0.936-0.523,1.549
		c0,0.574,0.167,1.081,0.5,1.52C79.701,50.412,80.164,50.631,80.754,50.631L80.754,50.631z M91.15,46.801
		c0.131-0.232,0.271-0.421,0.418-0.564c0.148-0.144,0.295-0.254,0.443-0.331c0.139-0.07,0.283-0.119,0.43-0.146
		c0.148-0.026,0.288-0.04,0.42-0.04c0.412,0,0.731,0.108,0.96,0.325c0.229,0.218,0.374,0.462,0.437,0.733
		c0.109-0.201,0.229-0.368,0.361-0.5s0.264-0.237,0.396-0.314c0.193-0.108,0.382-0.177,0.564-0.204
		c0.182-0.026,0.332-0.04,0.447-0.04c0.078,0,0.182,0.008,0.309,0.022c0.129,0.016,0.266,0.059,0.414,0.129
		c0.201,0.093,0.39,0.273,0.564,0.541c0.174,0.268,0.262,0.681,0.262,1.239v3.33h-0.698v-3.33c0-0.077-0.004-0.168-0.012-0.273
		c-0.008-0.104-0.023-0.211-0.046-0.32c-0.047-0.193-0.141-0.372-0.28-0.535s-0.36-0.244-0.663-0.244
		c-0.063,0-0.129,0.006-0.198,0.018s-0.136,0.029-0.198,0.052c-0.279,0.094-0.535,0.295-0.768,0.605
		c-0.233,0.311-0.35,0.753-0.35,1.327v2.701h-0.699v-3.295c0-0.062-0.002-0.124-0.006-0.186c-0.004-0.063-0.01-0.125-0.018-0.187
		c-0.022-0.257-0.1-0.493-0.232-0.711c-0.132-0.217-0.372-0.325-0.722-0.325c-0.419,0-0.761,0.174-1.024,0.523
		s-0.427,0.733-0.488,1.152c-0.008,0.055-0.014,0.109-0.018,0.164c-0.005,0.054-0.006,0.108-0.006,0.162v2.701h-0.699v-5.053h0.699
		V46.801L91.15,46.801z M103.363,49.386l0.535,0.268c-0.202,0.411-0.489,0.769-0.861,1.071c-0.373,0.303-0.861,0.454-1.467,0.454
		c-0.823,0-1.461-0.277-1.916-0.833c-0.453-0.555-0.681-1.186-0.681-1.892c0-0.124,0.007-0.254,0.022-0.39
		c0.016-0.137,0.043-0.274,0.082-0.414c0.132-0.48,0.395-0.923,0.786-1.326c0.392-0.404,0.96-0.605,1.706-0.605
		c0.667,0,1.182,0.188,1.542,0.564c0.36,0.376,0.596,0.794,0.704,1.251c0.031,0.109,0.053,0.218,0.064,0.326
		s0.018,0.214,0.018,0.314v0.338h-4.18c0,0.008,0,0.013,0,0.017s0,0.007,0,0.007c0,0.008,0,0.013,0,0.018c0,0.004,0,0.009,0,0.017
		c0,0.07,0.004,0.14,0.012,0.21s0.016,0.144,0.023,0.221c0.077,0.403,0.266,0.776,0.564,1.118s0.716,0.512,1.252,0.512
		c0.131,0,0.287-0.015,0.465-0.046c0.179-0.031,0.365-0.113,0.559-0.245c0.133-0.093,0.264-0.215,0.396-0.366
		C103.122,49.822,103.246,49.626,103.363,49.386L103.363,49.386z M99.777,47.953h3.422c-0.016-0.427-0.164-0.813-0.447-1.158
		c-0.283-0.345-0.674-0.518-1.17-0.518c-0.49,0-0.896,0.159-1.218,0.477C100.043,47.072,99.847,47.472,99.777,47.953L99.777,47.953z
		 M109.428,50.003v0.733c-0.031,0.016-0.064,0.033-0.099,0.053c-0.034,0.019-0.071,0.04-0.11,0.063
		c-0.163,0.086-0.357,0.161-0.582,0.227c-0.225,0.066-0.481,0.1-0.769,0.1c-0.861,0-1.56-0.261-2.096-0.78s-0.804-1.168-0.804-1.944
		c0-0.792,0.268-1.445,0.804-1.962c0.536-0.516,1.229-0.773,2.084-0.773c0.333,0,0.613,0.033,0.839,0.099
		c0.225,0.065,0.406,0.138,0.547,0.215c0.039,0.023,0.074,0.045,0.104,0.064c0.031,0.02,0.058,0.037,0.081,0.053v0.687
		c-0.334-0.24-0.619-0.394-0.855-0.46s-0.459-0.099-0.67-0.099c-0.582,0-1.092,0.188-1.53,0.564s-0.657,0.914-0.657,1.612
		c0,0.683,0.211,1.217,0.635,1.601c0.422,0.385,0.917,0.576,1.483,0.576c0.342,0,0.645-0.063,0.908-0.191
		S109.234,50.166,109.428,50.003L109.428,50.003z M110.615,50.98v-8.557h0.699v4.342c0.031-0.054,0.069-0.12,0.115-0.197
		c0.047-0.077,0.109-0.159,0.188-0.244c0.131-0.148,0.312-0.285,0.541-0.414c0.229-0.128,0.514-0.191,0.855-0.191
		c0.559,0,0.992,0.174,1.299,0.523c0.306,0.35,0.459,0.85,0.459,1.502v3.236h-0.698v-3.144c0-0.069-0.002-0.142-0.006-0.215
		c-0.004-0.074-0.01-0.146-0.018-0.216c-0.03-0.279-0.12-0.537-0.268-0.774c-0.147-0.236-0.431-0.354-0.851-0.354
		c-0.488,0-0.867,0.186-1.135,0.559s-0.425,0.784-0.471,1.234c0,0.047-0.003,0.093-0.006,0.14c-0.004,0.046-0.006,0.093-0.006,0.14
		v2.631H110.615L110.615,50.98z M120.662,46.824v-0.896h0.652v5.053h-0.652v-0.861c-0.201,0.364-0.471,0.633-0.809,0.804
		c-0.338,0.17-0.689,0.256-1.054,0.256c-0.683,0-1.292-0.231-1.827-0.692c-0.536-0.463-0.804-1.14-0.804-2.032
		c0-0.761,0.238-1.406,0.716-1.938c0.478-0.531,1.119-0.797,1.927-0.797c0.124,0,0.255,0.009,0.39,0.028
		c0.137,0.02,0.277,0.057,0.426,0.11c0.186,0.078,0.37,0.192,0.553,0.344C120.361,46.354,120.523,46.561,120.662,46.824
		L120.662,46.824z M118.8,50.631c0.521,0,0.961-0.191,1.321-0.576c0.361-0.384,0.541-0.918,0.541-1.601
		c0-0.574-0.162-1.081-0.488-1.52s-0.776-0.657-1.351-0.657s-1.036,0.211-1.386,0.634c-0.35,0.424-0.523,0.938-0.523,1.543
		c0,0.566,0.166,1.071,0.5,1.514S118.21,50.631,118.8,50.631L118.8,50.631z M123.037,50.98v-5.053h0.699v0.838
		c0.031-0.054,0.07-0.12,0.116-0.197s0.108-0.159,0.187-0.244c0.132-0.148,0.313-0.285,0.541-0.414
		c0.229-0.128,0.514-0.191,0.855-0.191c0.559,0,0.992,0.174,1.299,0.523s0.459,0.85,0.459,1.502v3.236h-0.698v-3.144
		c0-0.069-0.001-0.142-0.005-0.215c-0.004-0.074-0.01-0.146-0.018-0.216c-0.031-0.279-0.121-0.537-0.269-0.774
		c-0.147-0.236-0.431-0.354-0.85-0.354c-0.489,0-0.868,0.186-1.136,0.559s-0.424,0.784-0.471,1.234c0,0.047-0.002,0.093-0.006,0.14
		c-0.004,0.046-0.006,0.093-0.006,0.14v2.631H123.037L123.037,50.98z M128.917,45.928h0.698v5.053h-0.698V45.928L128.917,45.928z
		 M128.73,44.217c0-0.148,0.049-0.273,0.146-0.379c0.097-0.104,0.228-0.157,0.39-0.157c0.156,0,0.283,0.051,0.385,0.151
		s0.151,0.229,0.151,0.385c0,0.154-0.053,0.283-0.157,0.384c-0.105,0.101-0.23,0.151-0.379,0.151c-0.146,0-0.273-0.051-0.377-0.151
		C128.783,44.5,128.73,44.371,128.73,44.217L128.73,44.217z M130.85,49.944l0.57-0.303c0.086,0.248,0.232,0.476,0.443,0.681
		c0.209,0.206,0.484,0.309,0.826,0.309c0.334,0,0.594-0.091,0.779-0.273c0.188-0.183,0.279-0.425,0.279-0.728
		c0-0.271-0.08-0.478-0.244-0.617c-0.162-0.14-0.346-0.244-0.547-0.314c-0.068-0.022-0.139-0.046-0.209-0.069
		s-0.137-0.043-0.199-0.059c-0.006,0-0.016-0.002-0.027-0.006s-0.025-0.01-0.041-0.017c-0.35-0.109-0.67-0.261-0.961-0.455
		c-0.291-0.193-0.438-0.512-0.438-0.954c0-0.45,0.157-0.8,0.473-1.048c0.314-0.248,0.697-0.372,1.146-0.372
		c0.109,0,0.227,0.009,0.355,0.028c0.127,0.02,0.262,0.064,0.402,0.134c0.146,0.07,0.289,0.174,0.43,0.309
		c0.141,0.136,0.268,0.324,0.385,0.564l-0.525,0.28c-0.092-0.233-0.238-0.418-0.436-0.554s-0.422-0.203-0.67-0.203
		c-0.271,0-0.482,0.077-0.635,0.232c-0.15,0.155-0.227,0.346-0.227,0.57c0,0.241,0.07,0.414,0.209,0.519
		c0.141,0.104,0.326,0.2,0.559,0.285c0.039,0.008,0.08,0.02,0.123,0.035s0.088,0.031,0.135,0.046
		c0.039,0.016,0.078,0.029,0.121,0.041s0.084,0.025,0.123,0.041c0.357,0.116,0.684,0.283,0.979,0.501
		c0.295,0.217,0.441,0.57,0.441,1.059c0,0.07-0.006,0.144-0.018,0.222c-0.012,0.077-0.029,0.155-0.053,0.232
		c-0.084,0.288-0.264,0.546-0.535,0.774s-0.688,0.344-1.246,0.344c-0.107,0-0.242-0.012-0.4-0.035
		c-0.16-0.023-0.324-0.077-0.496-0.163c-0.162-0.086-0.322-0.21-0.478-0.372C131.09,50.445,130.958,50.224,130.85,49.944
		L130.85,49.944z M136.484,46.801c0.133-0.232,0.271-0.421,0.42-0.564s0.295-0.254,0.441-0.331c0.141-0.07,0.283-0.119,0.432-0.146
		c0.148-0.026,0.287-0.04,0.418-0.04c0.412,0,0.732,0.108,0.961,0.325c0.23,0.218,0.375,0.462,0.438,0.733
		c0.107-0.201,0.229-0.368,0.361-0.5c0.131-0.132,0.264-0.237,0.395-0.314c0.195-0.108,0.383-0.177,0.564-0.204
		c0.184-0.026,0.332-0.04,0.449-0.04c0.078,0,0.18,0.008,0.309,0.022c0.127,0.016,0.266,0.059,0.414,0.129
		c0.201,0.093,0.389,0.273,0.564,0.541c0.174,0.268,0.262,0.681,0.262,1.239v3.33h-0.699v-3.33c0-0.077-0.004-0.168-0.012-0.273
		c-0.008-0.104-0.023-0.211-0.047-0.32c-0.047-0.193-0.139-0.372-0.279-0.535c-0.139-0.163-0.361-0.244-0.664-0.244
		c-0.061,0-0.127,0.006-0.197,0.018s-0.135,0.029-0.197,0.052c-0.279,0.094-0.535,0.295-0.77,0.605
		c-0.232,0.311-0.35,0.753-0.35,1.327v2.701H139v-3.295c0-0.062-0.002-0.124-0.006-0.186c-0.004-0.063-0.01-0.125-0.018-0.187
		c-0.023-0.257-0.102-0.493-0.232-0.711c-0.133-0.217-0.373-0.325-0.723-0.325c-0.418,0-0.76,0.174-1.023,0.523
		s-0.428,0.733-0.49,1.152c-0.008,0.055-0.014,0.109-0.018,0.164c-0.004,0.054-0.006,0.108-0.006,0.162v2.701h-0.697v-5.053h0.697
		V46.801L136.484,46.801z M144.146,49.944l0.57-0.303c0.084,0.248,0.232,0.476,0.441,0.681c0.209,0.206,0.486,0.309,0.826,0.309
		c0.334,0,0.594-0.091,0.781-0.273c0.186-0.183,0.279-0.425,0.279-0.728c0-0.271-0.082-0.478-0.244-0.617
		c-0.164-0.14-0.346-0.244-0.547-0.314c-0.07-0.022-0.141-0.046-0.211-0.069s-0.135-0.043-0.197-0.059
		c-0.008,0-0.018-0.002-0.029-0.006s-0.025-0.01-0.041-0.017c-0.35-0.109-0.67-0.261-0.961-0.455
		c-0.291-0.193-0.436-0.512-0.436-0.954c0-0.45,0.156-0.8,0.471-1.048s0.697-0.372,1.146-0.372c0.109,0,0.229,0.009,0.355,0.028
		c0.129,0.02,0.262,0.064,0.402,0.134c0.146,0.07,0.291,0.174,0.43,0.309c0.141,0.136,0.268,0.324,0.385,0.564l-0.523,0.28
		c-0.094-0.233-0.238-0.418-0.438-0.554c-0.197-0.136-0.42-0.203-0.668-0.203c-0.273,0-0.484,0.077-0.635,0.232
		c-0.152,0.155-0.229,0.346-0.229,0.57c0,0.241,0.07,0.414,0.211,0.519c0.139,0.104,0.326,0.2,0.559,0.285
		c0.039,0.008,0.08,0.02,0.121,0.035c0.043,0.016,0.088,0.031,0.135,0.046c0.039,0.016,0.08,0.029,0.123,0.041
		c0.041,0.012,0.082,0.025,0.121,0.041c0.357,0.116,0.684,0.283,0.979,0.501c0.295,0.217,0.441,0.57,0.441,1.059
		c0,0.07-0.006,0.144-0.018,0.222c-0.012,0.077-0.029,0.155-0.051,0.232c-0.086,0.288-0.266,0.546-0.537,0.774
		s-0.686,0.344-1.244,0.344c-0.109,0-0.244-0.012-0.402-0.035c-0.16-0.023-0.324-0.077-0.494-0.163
		c-0.164-0.086-0.322-0.21-0.479-0.372C144.387,50.445,144.254,50.224,144.146,49.944L144.146,49.944z"/>
	<path fill-rule="evenodd" clip-rule="evenodd" fill="#C41230" d="M153.332,50.98v-4.494h-0.816v-0.559h0.816V43.67
		c0-0.031,0-0.061,0-0.088s0-0.057,0-0.087c0.023-0.295,0.115-0.565,0.279-0.81c0.162-0.244,0.457-0.367,0.885-0.367
		c0.107,0,0.205,0.006,0.291,0.018s0.154,0.025,0.209,0.041c0.047,0.008,0.086,0.018,0.117,0.029s0.049,0.018,0.057,0.018v0.594
		c-0.076-0.039-0.148-0.068-0.215-0.088s-0.129-0.033-0.191-0.04c-0.023-0.008-0.045-0.012-0.064-0.012s-0.041,0-0.064,0
		c-0.178,0-0.311,0.05-0.395,0.151c-0.086,0.101-0.145,0.213-0.176,0.338c-0.016,0.062-0.025,0.12-0.029,0.174
		c-0.004,0.055-0.006,0.104-0.006,0.151v2.235h1.141v0.559h-1.141v4.494H153.332L153.332,50.98z M158.617,51.19
		c-0.73-0.008-1.369-0.251-1.922-0.729c-0.551-0.477-0.826-1.146-0.826-2.008c0-0.761,0.252-1.406,0.758-1.938
		c0.504-0.531,1.168-0.797,1.99-0.797c0.83,0,1.496,0.266,1.996,0.797c0.5,0.532,0.752,1.178,0.752,1.938s-0.252,1.405-0.752,1.933
		s-1.166,0.792-1.996,0.792V51.19L158.617,51.19z M158.617,50.631c0.637,0,1.129-0.227,1.479-0.681s0.523-0.953,0.523-1.496
		c0-0.551-0.174-1.052-0.523-1.502s-0.842-0.675-1.479-0.675s-1.129,0.225-1.479,0.675s-0.523,0.951-0.523,1.502
		c0,0.552,0.174,1.052,0.523,1.502S157.98,50.631,158.617,50.631L158.617,50.631z M162.762,50.98v-5.053h0.699v1.06
		c0.146-0.279,0.291-0.501,0.43-0.663c0.141-0.164,0.279-0.284,0.42-0.361c0.1-0.055,0.203-0.093,0.309-0.116
		c0.104-0.023,0.211-0.035,0.32-0.035c0.107,0,0.205,0.008,0.291,0.023c0.084,0.016,0.158,0.035,0.221,0.058
		c0.023,0.008,0.043,0.014,0.059,0.018s0.031,0.01,0.047,0.018l-0.211,0.652c-0.008-0.008-0.016-0.014-0.023-0.018
		s-0.016-0.006-0.023-0.006c-0.053-0.023-0.117-0.047-0.191-0.07s-0.16-0.035-0.262-0.035c-0.008,0-0.014,0-0.018,0s-0.01,0-0.018,0
		c-0.303,0.016-0.586,0.194-0.85,0.536s-0.422,0.718-0.477,1.13c-0.008,0.038-0.014,0.081-0.018,0.128
		c-0.004,0.046-0.006,0.089-0.006,0.128v2.607H162.762L162.762,50.98z M170.795,50.98v-4.494h-0.814v-0.559h0.814V43.67
		c0-0.031,0-0.061,0-0.088s0-0.057,0-0.087c0.023-0.295,0.117-0.565,0.279-0.81c0.164-0.244,0.459-0.367,0.885-0.367
		c0.109,0,0.205,0.006,0.291,0.018s0.156,0.025,0.209,0.041c0.047,0.008,0.086,0.018,0.117,0.029s0.051,0.018,0.059,0.018v0.594
		c-0.078-0.039-0.15-0.068-0.217-0.088c-0.064-0.02-0.129-0.033-0.191-0.04c-0.023-0.008-0.045-0.012-0.063-0.012
		c-0.02,0-0.041,0-0.064,0c-0.18,0-0.311,0.05-0.396,0.151c-0.086,0.101-0.145,0.213-0.174,0.338
		c-0.016,0.062-0.025,0.12-0.029,0.174c-0.004,0.055-0.006,0.104-0.006,0.151v2.235h1.141v0.559h-1.141v4.494H170.795L170.795,50.98
		z M173.66,45.928h0.697v3.063c0,0.069,0.004,0.178,0.012,0.325s0.043,0.299,0.105,0.454c0.07,0.218,0.203,0.415,0.4,0.594
		c0.199,0.179,0.5,0.268,0.902,0.268c0.412,0,0.717-0.095,0.914-0.285c0.197-0.189,0.332-0.397,0.402-0.623
		c0.039-0.14,0.064-0.274,0.076-0.407c0.012-0.132,0.018-0.24,0.018-0.325v-3.063h0.697v2.98c0,0.722-0.143,1.242-0.43,1.561
		c-0.287,0.317-0.602,0.523-0.943,0.616c-0.133,0.031-0.26,0.055-0.385,0.07c-0.123,0.016-0.24,0.023-0.35,0.023
		c-0.107,0-0.225-0.006-0.35-0.018c-0.123-0.012-0.248-0.037-0.371-0.076c-0.35-0.085-0.67-0.289-0.961-0.61
		c-0.291-0.322-0.436-0.845-0.436-1.566V45.928L173.66,45.928z M179.607,50.98v-5.053h0.699v1.06
		c0.148-0.279,0.291-0.501,0.432-0.663c0.139-0.164,0.279-0.284,0.418-0.361c0.102-0.055,0.205-0.093,0.309-0.116
		c0.105-0.023,0.211-0.035,0.32-0.035s0.205,0.008,0.291,0.023s0.16,0.035,0.221,0.058c0.023,0.008,0.043,0.014,0.059,0.018
		s0.031,0.01,0.047,0.018l-0.209,0.652c-0.008-0.008-0.016-0.014-0.023-0.018s-0.016-0.006-0.023-0.006
		c-0.055-0.023-0.119-0.047-0.193-0.07c-0.072-0.023-0.16-0.035-0.262-0.035c-0.008,0-0.012,0-0.018,0c-0.004,0-0.01,0-0.018,0
		c-0.301,0.016-0.584,0.194-0.85,0.536c-0.264,0.342-0.422,0.718-0.477,1.13c-0.008,0.038-0.014,0.081-0.018,0.128
		c-0.004,0.046-0.006,0.089-0.006,0.128v2.607H179.607L179.607,50.98z M183.393,50.98v-5.053h0.697v0.838
		c0.031-0.054,0.07-0.12,0.117-0.197s0.109-0.159,0.186-0.244c0.133-0.148,0.313-0.285,0.541-0.414
		c0.23-0.128,0.516-0.191,0.857-0.191c0.559,0,0.99,0.174,1.297,0.523s0.461,0.85,0.461,1.502v3.236h-0.699v-3.144
		c0-0.069-0.002-0.142-0.006-0.215c-0.004-0.074-0.01-0.146-0.018-0.216c-0.031-0.279-0.121-0.537-0.268-0.774
		c-0.148-0.236-0.432-0.354-0.85-0.354c-0.488,0-0.867,0.186-1.135,0.559s-0.426,0.784-0.473,1.234c0,0.047-0.002,0.093-0.006,0.14
		c-0.004,0.046-0.006,0.093-0.006,0.14v2.631H183.393L183.393,50.98z M189.271,45.928h0.699v5.053h-0.699V45.928L189.271,45.928z
		 M189.086,44.217c0-0.148,0.047-0.273,0.145-0.379c0.098-0.104,0.227-0.157,0.391-0.157c0.154,0,0.283,0.051,0.383,0.151
		c0.102,0.101,0.152,0.229,0.152,0.385c0,0.154-0.053,0.283-0.158,0.384c-0.104,0.101-0.23,0.151-0.377,0.151
		c-0.148,0-0.273-0.051-0.379-0.151S189.086,44.371,189.086,44.217L189.086,44.217z M191.855,50.98v-4.494h-0.814v-0.559h0.814
		v-1.955h0.699v1.955h0.979v0.559h-0.979v4.494H191.855L191.855,50.98z M194.604,45.928h0.699v3.063c0,0.069,0.004,0.178,0.01,0.325
		c0.01,0.147,0.043,0.299,0.105,0.454c0.07,0.218,0.203,0.415,0.402,0.594c0.197,0.179,0.498,0.268,0.902,0.268
		c0.41,0,0.715-0.095,0.914-0.285c0.197-0.189,0.332-0.397,0.4-0.623c0.039-0.14,0.064-0.274,0.076-0.407
		c0.012-0.132,0.018-0.24,0.018-0.325v-3.063h0.699v2.98c0,0.722-0.145,1.242-0.432,1.561c-0.287,0.317-0.602,0.523-0.943,0.616
		c-0.131,0.031-0.26,0.055-0.383,0.07c-0.125,0.016-0.242,0.023-0.35,0.023c-0.109,0-0.225-0.006-0.35-0.018
		s-0.248-0.037-0.373-0.076c-0.35-0.085-0.67-0.289-0.961-0.61c-0.289-0.322-0.436-0.845-0.436-1.566V45.928L194.604,45.928z
		 M200.553,50.98v-5.053h0.699v1.06c0.146-0.279,0.289-0.501,0.43-0.663c0.139-0.164,0.279-0.284,0.42-0.361
		c0.1-0.055,0.203-0.093,0.309-0.116c0.104-0.023,0.211-0.035,0.318-0.035c0.109,0,0.207,0.008,0.293,0.023
		c0.084,0.016,0.158,0.035,0.221,0.058c0.023,0.008,0.043,0.014,0.059,0.018s0.029,0.01,0.045,0.018l-0.209,0.652
		c-0.008-0.008-0.016-0.014-0.023-0.018s-0.016-0.006-0.023-0.006c-0.055-0.023-0.117-0.047-0.191-0.07s-0.16-0.035-0.262-0.035
		c-0.008,0-0.014,0-0.018,0s-0.01,0-0.018,0c-0.303,0.016-0.586,0.194-0.85,0.536s-0.424,0.718-0.479,1.13
		c-0.006,0.038-0.014,0.081-0.018,0.128c-0.004,0.046-0.004,0.089-0.004,0.128v2.607H200.553L200.553,50.98z M208.398,49.386
		l0.537,0.268c-0.203,0.411-0.49,0.769-0.861,1.071c-0.373,0.303-0.863,0.454-1.469,0.454c-0.822,0-1.461-0.277-1.914-0.833
		c-0.453-0.555-0.682-1.186-0.682-1.892c0-0.124,0.008-0.254,0.023-0.39c0.016-0.137,0.043-0.274,0.082-0.414
		c0.131-0.48,0.393-0.923,0.785-1.326c0.393-0.404,0.961-0.605,1.705-0.605c0.668,0,1.184,0.188,1.543,0.564
		c0.361,0.376,0.596,0.794,0.705,1.251c0.031,0.109,0.053,0.218,0.064,0.326s0.018,0.214,0.018,0.314v0.338h-4.18
		c0,0.008,0,0.013,0,0.017s0,0.007,0,0.007c0,0.008,0,0.013,0,0.018c0,0.004,0,0.009,0,0.017c0,0.07,0.004,0.14,0.012,0.21
		s0.016,0.144,0.023,0.221c0.076,0.403,0.266,0.776,0.564,1.118s0.715,0.512,1.25,0.512c0.133,0,0.287-0.015,0.467-0.046
		c0.178-0.031,0.365-0.113,0.559-0.245c0.133-0.093,0.264-0.215,0.396-0.366C208.158,49.822,208.283,49.626,208.398,49.386
		L208.398,49.386z M204.814,47.953h3.422c-0.016-0.427-0.164-0.813-0.447-1.158c-0.285-0.345-0.674-0.518-1.17-0.518
		c-0.49,0-0.895,0.159-1.219,0.477C205.08,47.072,204.883,47.472,204.814,47.953L204.814,47.953z M214.418,45.928h0.699v5.053
		h-0.699V45.928L214.418,45.928z M214.232,44.217c0-0.148,0.049-0.273,0.145-0.379c0.098-0.104,0.229-0.157,0.391-0.157
		c0.154,0,0.283,0.051,0.385,0.151c0.1,0.101,0.15,0.229,0.15,0.385c0,0.154-0.053,0.283-0.156,0.384
		c-0.105,0.101-0.232,0.151-0.379,0.151c-0.148,0-0.273-0.051-0.379-0.151C214.285,44.5,214.232,44.371,214.232,44.217
		L214.232,44.217z M216.84,50.98v-5.053h0.699v0.838c0.031-0.054,0.07-0.12,0.115-0.197c0.047-0.077,0.109-0.159,0.188-0.244
		c0.131-0.148,0.313-0.285,0.541-0.414c0.229-0.128,0.514-0.191,0.855-0.191c0.559,0,0.992,0.174,1.299,0.523
		c0.305,0.35,0.459,0.85,0.459,1.502v3.236h-0.699v-3.144c0-0.069,0-0.142-0.004-0.215c-0.006-0.074-0.012-0.146-0.02-0.216
		c-0.029-0.279-0.119-0.537-0.268-0.774c-0.146-0.236-0.43-0.354-0.85-0.354c-0.488,0-0.867,0.186-1.135,0.559
		s-0.424,0.784-0.471,1.234c0,0.047-0.002,0.093-0.006,0.14c-0.004,0.046-0.006,0.093-0.006,0.14v2.631H216.84L216.84,50.98z
		 M227.539,50.98h-0.652v-0.861c-0.201,0.364-0.471,0.633-0.809,0.804c-0.338,0.17-0.689,0.256-1.053,0.256
		c-0.684,0-1.293-0.231-1.828-0.692c-0.535-0.463-0.805-1.14-0.805-2.032c0-0.761,0.244-1.406,0.729-1.938
		c0.484-0.531,1.127-0.797,1.926-0.797c0.125,0,0.271,0.014,0.443,0.04c0.17,0.027,0.346,0.084,0.523,0.169
		c0.148,0.078,0.293,0.181,0.438,0.309c0.143,0.128,0.273,0.297,0.389,0.507v-4.308h0.699V50.98L227.539,50.98z M225.025,50.631
		c0.527,0,0.969-0.191,1.326-0.576c0.357-0.384,0.535-0.918,0.535-1.601c0-0.574-0.162-1.081-0.488-1.52s-0.777-0.657-1.352-0.657
		s-1.035,0.209-1.385,0.628c-0.35,0.42-0.523,0.936-0.523,1.549c0,0.574,0.166,1.081,0.5,1.52S224.434,50.631,225.025,50.631
		L225.025,50.631z M229.262,45.928h0.699v3.063c0,0.069,0.004,0.178,0.012,0.325s0.043,0.299,0.105,0.454
		c0.068,0.218,0.203,0.415,0.4,0.594s0.498,0.268,0.902,0.268c0.412,0,0.717-0.095,0.914-0.285c0.197-0.189,0.332-0.397,0.402-0.623
		c0.039-0.14,0.064-0.274,0.074-0.407c0.012-0.132,0.018-0.24,0.018-0.325v-3.063h0.699v2.98c0,0.722-0.145,1.242-0.432,1.561
		c-0.287,0.317-0.602,0.523-0.941,0.616c-0.133,0.031-0.262,0.055-0.385,0.07c-0.125,0.016-0.24,0.023-0.35,0.023
		s-0.225-0.006-0.35-0.018c-0.123-0.012-0.248-0.037-0.373-0.076c-0.348-0.085-0.668-0.289-0.959-0.61
		c-0.291-0.322-0.438-0.845-0.438-1.566V45.928L229.262,45.928z M234.723,49.944l0.57-0.303c0.086,0.248,0.232,0.476,0.441,0.681
		c0.211,0.206,0.486,0.309,0.828,0.309c0.334,0,0.594-0.091,0.779-0.273s0.279-0.425,0.279-0.728c0-0.271-0.082-0.478-0.244-0.617
		c-0.164-0.14-0.346-0.244-0.547-0.314c-0.07-0.022-0.141-0.046-0.209-0.069c-0.07-0.023-0.137-0.043-0.199-0.059
		c-0.008,0-0.018-0.002-0.029-0.006s-0.025-0.01-0.041-0.017c-0.35-0.109-0.668-0.261-0.959-0.455
		c-0.291-0.193-0.438-0.512-0.438-0.954c0-0.45,0.158-0.8,0.471-1.048c0.314-0.248,0.697-0.372,1.148-0.372
		c0.107,0,0.227,0.009,0.355,0.028c0.127,0.02,0.262,0.064,0.4,0.134c0.148,0.07,0.291,0.174,0.432,0.309
		c0.139,0.136,0.268,0.324,0.383,0.564l-0.523,0.28c-0.094-0.233-0.238-0.418-0.438-0.554c-0.197-0.136-0.42-0.203-0.668-0.203
		c-0.271,0-0.484,0.077-0.635,0.232s-0.227,0.346-0.227,0.57c0,0.241,0.068,0.414,0.209,0.519c0.139,0.104,0.326,0.2,0.559,0.285
		c0.039,0.008,0.08,0.02,0.123,0.035s0.086,0.031,0.133,0.046c0.039,0.016,0.08,0.029,0.123,0.041s0.084,0.025,0.121,0.041
		c0.357,0.116,0.684,0.283,0.979,0.501c0.295,0.217,0.443,0.57,0.443,1.059c0,0.07-0.006,0.144-0.018,0.222
		c-0.012,0.077-0.029,0.155-0.053,0.232c-0.086,0.288-0.264,0.546-0.535,0.774s-0.688,0.344-1.246,0.344
		c-0.109,0-0.242-0.012-0.402-0.035c-0.158-0.023-0.324-0.077-0.494-0.163c-0.164-0.086-0.322-0.21-0.479-0.372
		C234.963,50.445,234.83,50.224,234.723,49.944L234.723,49.944z M239.822,50.98v-4.494h-0.814v-0.559h0.814v-1.955h0.697v1.955
		h0.979v0.559h-0.979v4.494H239.822L239.822,50.98z M242.568,50.98v-5.053h0.699v1.06c0.148-0.279,0.291-0.501,0.432-0.663
		c0.139-0.164,0.279-0.284,0.418-0.361c0.102-0.055,0.203-0.093,0.309-0.116s0.211-0.035,0.32-0.035s0.205,0.008,0.291,0.023
		s0.16,0.035,0.221,0.058c0.023,0.008,0.043,0.014,0.059,0.018s0.031,0.01,0.047,0.018l-0.209,0.652
		c-0.008-0.008-0.016-0.014-0.023-0.018s-0.016-0.006-0.023-0.006c-0.055-0.023-0.119-0.047-0.193-0.07
		c-0.072-0.023-0.16-0.035-0.262-0.035c-0.008,0-0.012,0-0.018,0c-0.004,0-0.01,0-0.018,0c-0.301,0.016-0.586,0.194-0.85,0.536
		s-0.422,0.718-0.477,1.13c-0.008,0.038-0.014,0.081-0.018,0.128c-0.004,0.046-0.006,0.089-0.006,0.128v2.607H242.568L242.568,50.98
		z M247.691,45.928h0.699v5.053h-0.699V45.928L247.691,45.928z M247.506,44.217c0-0.148,0.049-0.273,0.145-0.379
		c0.098-0.104,0.229-0.157,0.391-0.157c0.154,0,0.283,0.051,0.385,0.151c0.1,0.101,0.15,0.229,0.15,0.385
		c0,0.154-0.053,0.283-0.156,0.384c-0.105,0.101-0.232,0.151-0.379,0.151c-0.148,0-0.273-0.051-0.379-0.151
		C247.559,44.5,247.506,44.371,247.506,44.217L247.506,44.217z M254.176,49.386l0.537,0.268c-0.203,0.411-0.49,0.769-0.863,1.071
		c-0.371,0.303-0.861,0.454-1.467,0.454c-0.822,0-1.461-0.277-1.914-0.833c-0.455-0.555-0.682-1.186-0.682-1.892
		c0-0.124,0.008-0.254,0.023-0.39c0.016-0.137,0.043-0.274,0.082-0.414c0.131-0.48,0.393-0.923,0.785-1.326
		c0.393-0.404,0.961-0.605,1.705-0.605c0.668,0,1.182,0.188,1.543,0.564c0.361,0.376,0.596,0.794,0.705,1.251
		c0.031,0.109,0.053,0.218,0.064,0.326s0.018,0.214,0.018,0.314v0.338h-4.18c0,0.008,0,0.013,0,0.017s0,0.007,0,0.007
		c0,0.008,0,0.013,0,0.018c0,0.004,0,0.009,0,0.017c0,0.07,0.004,0.14,0.01,0.21c0.01,0.07,0.016,0.144,0.025,0.221
		c0.076,0.403,0.266,0.776,0.564,1.118s0.715,0.512,1.25,0.512c0.133,0,0.287-0.015,0.467-0.046
		c0.178-0.031,0.365-0.113,0.559-0.245c0.133-0.093,0.264-0.215,0.396-0.366C253.936,49.822,254.061,49.626,254.176,49.386
		L254.176,49.386z M250.592,47.953h3.422c-0.016-0.427-0.166-0.813-0.449-1.158c-0.283-0.345-0.672-0.518-1.17-0.518
		c-0.488,0-0.895,0.159-1.217,0.477C250.857,47.072,250.66,47.472,250.592,47.953L250.592,47.953z M255.621,49.944l0.57-0.303
		c0.084,0.248,0.232,0.476,0.441,0.681c0.209,0.206,0.484,0.309,0.826,0.309c0.334,0,0.594-0.091,0.781-0.273
		c0.186-0.183,0.279-0.425,0.279-0.728c0-0.271-0.082-0.478-0.244-0.617c-0.164-0.14-0.346-0.244-0.549-0.314
		c-0.068-0.022-0.139-0.046-0.209-0.069s-0.135-0.043-0.197-0.059c-0.008,0-0.018-0.002-0.029-0.006s-0.025-0.01-0.041-0.017
		c-0.35-0.109-0.67-0.261-0.961-0.455c-0.291-0.193-0.436-0.512-0.436-0.954c0-0.45,0.156-0.8,0.471-1.048s0.697-0.372,1.146-0.372
		c0.109,0,0.229,0.009,0.355,0.028c0.129,0.02,0.262,0.064,0.402,0.134c0.146,0.07,0.291,0.174,0.43,0.309
		c0.141,0.136,0.268,0.324,0.385,0.564l-0.523,0.28c-0.094-0.233-0.24-0.418-0.438-0.554s-0.42-0.203-0.668-0.203
		c-0.273,0-0.484,0.077-0.635,0.232c-0.152,0.155-0.229,0.346-0.229,0.57c0,0.241,0.07,0.414,0.211,0.519
		c0.139,0.104,0.324,0.2,0.559,0.285c0.039,0.008,0.08,0.02,0.121,0.035c0.043,0.016,0.088,0.031,0.135,0.046
		c0.039,0.016,0.08,0.029,0.123,0.041c0.041,0.012,0.082,0.025,0.121,0.041c0.357,0.116,0.684,0.283,0.979,0.501
		c0.295,0.217,0.441,0.57,0.441,1.059c0,0.07-0.006,0.144-0.018,0.222c-0.012,0.077-0.029,0.155-0.051,0.232
		c-0.086,0.288-0.266,0.546-0.537,0.774s-0.686,0.344-1.246,0.344c-0.107,0-0.242-0.012-0.4-0.035
		c-0.16-0.023-0.324-0.077-0.494-0.163c-0.164-0.086-0.322-0.21-0.479-0.372C255.861,50.445,255.729,50.224,255.621,49.944
		L255.621,49.944z"/>
	<g>
		<path fill-rule="evenodd" clip-rule="evenodd" fill="#C41230" d="M175.659,6.095c-1.945,0-3.746,0.477-5.4,1.433
			c-1.646,0.964-2.961,2.303-3.933,4.044c-0.974,1.732-1.459,3.565-1.459,5.494c0,1.921,0.485,3.755,1.467,5.504
			c0.99,1.747,2.302,3.105,3.968,4.086c1.655,0.973,3.438,1.459,5.33,1.459c1.922,0,3.74-0.486,5.454-1.45
			c1.715-0.964,3.038-2.269,3.961-3.923c0.928-1.648,1.387-3.508,1.387-5.574c0-3.146-1.039-5.783-3.113-7.899
			C181.249,7.152,178.698,6.095,175.659,6.095z M188.661,3.415c0.55,0,1,0.45,1,1v25.2c0,0.55-0.45,1-1,1h-1.448c-0.55,0-1-0.45-1-1
			v-3.677c-1.468,1.784-3.113,3.124-4.939,4.028c-1.826,0.895-3.822,1.348-5.988,1.348c-3.85,0-7.134-1.399-9.864-4.188
			c-2.722-2.79-4.084-6.187-4.084-10.188c0-3.917,1.38-7.262,4.129-10.041c2.746-2.783,6.056-4.183,9.922-4.183
			c2.233,0,4.258,0.48,6.055,1.425c1.81,0.956,3.396,2.381,4.771,4.275v-4c0-0.55,0.45-1,1-1H188.661z"/>
	</g>
	<g>
		<path fill-rule="evenodd" clip-rule="evenodd" fill="#C41230" d="M146.812,3.595c0.251-0.489,0.692-0.89,0.981-0.89
			s0.67,0.426,0.847,0.947l9.068,26.739c0.177,0.521-0.129,0.947-0.679,0.947h-1.837c-0.55,0-1.144-0.427-1.318-0.948l-6.449-19.184
			c-0.175-0.521-0.526-0.549-0.78-0.062l-10.07,19.307c-0.254,0.487-0.615,0.887-0.803,0.887c-0.187,0-0.549-0.398-0.804-0.886
			l-10.104-19.309c-0.255-0.487-0.606-0.459-0.781,0.063l-6.415,19.184c-0.175,0.521-0.768,0.948-1.317,0.948h-1.844
			c-0.55,0-0.854-0.426-0.678-0.946l9.119-26.741c0.178-0.521,0.548-0.946,0.822-0.946c0.273,0,0.704,0.4,0.956,0.889l10.615,20.623
			c0.252,0.488,0.663,0.488,0.914-0.001L146.812,3.595z"/>
	</g>
	<g>
		<path fill-rule="evenodd" clip-rule="evenodd" fill="#C41230" d="M87.414,3.733c0-0.55,0.45-1,1-1h1.691c0.55,0,1,0.45,1,1v9.996
			c0,0.55,0.333,0.697,0.739,0.327l11.698-10.65c0.406-0.37,1.189-0.673,1.739-0.673h3.102c0.55,0,0.666,0.302,0.258,0.671
			l-12.94,11.699c-0.408,0.369-0.423,0.988-0.032,1.375l14.159,14.047c0.391,0.387,0.26,0.704-0.29,0.704h-3.184
			c-0.55,0-1.317-0.319-1.705-0.709L92.964,18.763c-0.388-0.39-0.965-0.478-1.282-0.195c-0.316,0.282-0.576,0.964-0.576,1.514
			v10.148c0,0.55-0.45,1-1,1h-1.691c-0.55,0-1-0.45-1-1V3.733z"/>
	</g>
	<g>
		<path fill-rule="evenodd" clip-rule="evenodd" fill="#C41230" d="M64.928,6.109c-1.944,0-3.74,0.479-5.395,1.433
			c-1.647,0.964-2.958,2.301-3.931,4.04c-0.972,1.731-1.457,3.563-1.457,5.49c0,1.919,0.485,3.752,1.466,5.5
			c0.988,1.746,2.301,3.102,3.963,4.081c1.655,0.973,3.438,1.46,5.33,1.46c1.916,0,3.732-0.487,5.444-1.451
			c1.716-0.962,3.036-2.267,3.957-3.92c0.929-1.646,1.39-3.504,1.39-5.568c0-3.145-1.041-5.778-3.112-7.893
			C70.513,7.168,67.963,6.109,64.928,6.109z M77.919,3.433c0.55,0,1,0.45,1,1V29.61c0,0.55-0.45,1-1,1h-1.444c-0.55,0-1-0.45-1-1
			v-3.672c-1.467,1.782-3.111,3.121-4.937,4.023c-1.823,0.896-3.82,1.347-5.985,1.347c-3.846,0-7.126-1.397-9.854-4.185
			c-2.719-2.788-4.082-6.181-4.082-10.179c0-3.913,1.38-7.256,4.125-10.033c2.746-2.78,6.053-4.179,9.914-4.179
			c2.233,0,4.254,0.479,6.054,1.423c1.806,0.956,3.394,2.38,4.766,4.273V4.433c0-0.55,0.45-1,1-1H77.919z"/>
	</g>
	<g>
		<path fill-rule="evenodd" clip-rule="evenodd" fill="#C41230" d="M35.316,3.626c0.251-0.489,0.692-0.89,0.98-0.89
			s0.669,0.426,0.846,0.947l9.044,26.674c0.177,0.521-0.129,0.947-0.679,0.947h-1.827c-0.55,0-1.144-0.427-1.318-0.948
			l-6.434-19.136c-0.175-0.521-0.526-0.549-0.78-0.062L25.104,30.418c-0.254,0.487-0.615,0.887-0.803,0.887s-0.55-0.398-0.805-0.886
			L13.42,11.158c-0.255-0.487-0.606-0.459-0.781,0.063L6.239,30.356c-0.175,0.521-0.768,0.948-1.317,0.948H3.087
			c-0.55,0-0.854-0.426-0.677-0.946l9.096-26.676c0.178-0.521,0.547-0.946,0.82-0.946c0.274,0,0.704,0.4,0.956,0.889l10.589,20.572
			c0.252,0.488,0.663,0.488,0.914-0.001L35.316,3.626z"/>
	</g>
	<g>
		<path fill-rule="evenodd" clip-rule="evenodd" fill="#C41230" d="M202.597,5.59c-0.55,0-0.99,0.45-0.979,1l0.212,10.188
			c0.011,0.55,0.471,1.002,1.021,1.005l7.716,0.035c6.852,0.032,10.181-1.833,10.094-6.231c-0.087-4.246-3.198-5.996-10.163-5.996
			H202.597z M197.794,3.798c0-0.55,0.45-1,1-1h8.165c5.119,0,7.203-0.119,8.81,0.192c6.909,1.346,9.464,4.025,9.23,8.596
			c-0.28,5.448-3.037,7.717-14.06,8.964l15.474,10.22c0.458,0.303,0.384,0.551-0.166,0.551h-3.705c-0.55,0-1.375-0.248-1.834-0.552
			l-14.597-9.667c-0.459-0.304-1.284-0.552-1.834-0.552h-1.428c-0.55,0-1.011,0.45-1.023,1l-0.206,8.771
			c-0.013,0.55-0.474,1-1.023,1h-1.803c-0.55,0-1-0.45-1-1V3.798z"/>
	</g>
	<g>
		<path fill-rule="evenodd" clip-rule="evenodd" fill="#C41230" d="M230.159,3.788c0.002-0.55,0.453-1,1.003-1l28.21-0.014
			c0.55,0,0.999,0.45,0.997,1l-0.004,1.171c-0.002,0.55-0.453,1.003-1.003,1.006l-10.748,0.061c-0.55,0.003-1.001,0.456-1.003,1.006
			l-0.072,23.311c-0.002,0.55-0.453,0.999-1.003,0.997l-1.7-0.005c-0.55-0.002-0.999-0.453-0.997-1.003l0.072-23.312
			c0.002-0.55-0.447-1.001-0.997-1.003l-11.762-0.037c-0.55-0.002-0.999-0.453-0.997-1.003L230.159,3.788z"/>
	</g>
</g>
</svg>
