<?xml version="1.0" encoding="utf-8"?>
<!-- Generator: Adobe Illustrator 16.0.0, SVG Export Plug-In . SVG Version: 6.00 Build 0)  -->
<!DOCTYPE svg PUBLIC "-//W3C//DTD SVG 1.1//EN" "http://www.w3.org/Graphics/SVG/1.1/DTD/svg11.dtd">
<svg version="1.1" id="Слой_1" xmlns="http://www.w3.org/2000/svg" xmlns:xlink="http://www.w3.org/1999/xlink" x="0px" y="0px"
	 width="256.013px" height="65px" viewBox="0 0 256.013 65" style="enable-background:new 0 0 256.013 65;" xml:space="preserve">
<g>
	<g>
		<g>
			<g>
				<path d="M53.027,29.245c-0.317,0.672-0.712,1.299-1.171,1.875c-0.478,0.583-0.976,1.131-1.524,1.693
					c-0.548,0.556-1.101,1.115-1.681,1.692c-0.57,0.573-1.118,1.186-1.653,1.845c-0.445,0.585-1.008,1.203-1.691,1.855
					c-0.691,0.65-1.393,1.332-2.119,2.043c-0.737,0.724-1.46,1.46-2.187,2.205c-0.723,0.751-1.342,1.506-1.859,2.247
					c-0.221,0.333-0.449,0.737-0.691,1.196c-0.246,0.463-0.478,0.958-0.691,1.489c-0.224,0.537-0.427,1.076-0.645,1.638
					c-0.21,0.573-0.398,1.1-0.559,1.606c-0.271,1.007-0.466,1.85-0.599,2.514c-0.131,0.673-0.217,1.232-0.231,1.691
					c-0.018,0.46,0.039,0.823,0.16,1.114c0.118,0.274,0.307,0.517,0.591,0.763c0.417,0.142,0.876,0.089,1.382-0.149
					c0.498-0.242,1.011-0.549,1.499-0.917c0.506-0.376,0.987-0.722,1.454-1.068c0.445-0.352,0.851-0.54,1.203-0.611
					c0.271-0.036,0.577-0.206,0.958-0.502c0.377-0.308,0.784-0.667,1.222-1.051c0.42-0.409,0.865-0.812,1.292-1.229
					c0.428-0.42,0.837-0.762,1.214-1.028c0.374-0.269,0.712-0.428,0.976-0.457c0.263-0.031,0.463,0.146,0.566,0.521
					c-0.908,0.852-1.959,1.799-3.148,2.863c-1.207,1.058-2.372,2.069-3.525,3.041c-1.165,0.977-2.248,1.803-3.273,2.487
					c-1.015,0.696-1.83,1.083-2.411,1.174c-0.359,0.065-0.659,0.046-0.915-0.035c-0.253-0.071-0.499-0.186-0.745-0.325
					c-0.217-0.152-0.456-0.296-0.712-0.457c-0.26-0.155-0.556-0.287-0.905-0.374c-0.213-0.457-0.392-0.85-0.499-1.191
					c-0.114-0.342-0.186-0.723-0.203-1.143c-0.024-0.424-0.007-0.94,0.046-1.553c0.05-0.605,0.157-1.4,0.289-2.403
					c0.192-0.534,0.377-1.09,0.559-1.652c0.182-0.542,0.306-1.03,0.384-1.451c0.061-0.417,0.061-0.741,0-0.964
					c-0.064-0.242-0.253-0.313-0.534-0.246c-0.061,0.043-0.161,0.125-0.303,0.235c-0.149,0.106-0.374,0.294-0.684,0.558
					c-0.306,0.256-0.723,0.589-1.243,0.991c-0.517,0.4-1.176,0.904-1.961,1.504c-0.766,0.644-1.633,1.257-2.573,1.837
					c-0.958,0.584-1.887,1.207-2.81,1.873c-0.178-0.032-0.431,0.067-0.762,0.281c-0.342,0.214-0.696,0.482-1.104,0.787
					c-0.402,0.299-0.819,0.634-1.245,0.986c-0.424,0.35-0.817,0.671-1.169,0.937c-0.399,0.267-0.763,0.566-1.083,0.866
					c-0.313,0.321-0.632,0.606-0.994,0.89c-0.345,0.281-0.717,0.541-1.134,0.784c-0.407,0.256-0.915,0.464-1.488,0.644
					c-1.619,1.005-3.075,1.855-4.361,2.53c-1.301,0.671-2.288,1.063-2.966,1.174c-0.758,0.117-1.535,0.16-2.301,0.117
					c-0.783-0.046-1.584-0.36-2.396-0.958c-0.766-0.537-1.271-1.095-1.531-1.648c-0.271-0.562-0.438-1.012-0.484-1.336
					c-0.062-0.449-0.083-0.99-0.036-1.67c0.036-0.666,0.15-1.321,0.321-1.948c0.092-0.381,0.121-0.762,0.092-1.143
					c-0.038-0.393,0.043-0.737,0.244-1.033c0.628-0.94,1.113-1.648,1.448-2.092c0.34-0.443,0.634-0.923,0.885-1.462
					c0.077-0.396,0.162-0.725,0.223-0.979c0.066-0.246,0.132-0.463,0.198-0.643c0.059-0.166,0.144-0.344,0.254-0.504
					c0.109-0.182,0.249-0.397,0.413-0.673c1.584-2.479,3.512-4.847,5.748-7.102c0.102-0.103,0.257-0.187,0.463-0.238
					c0.21-0.039,0.409-0.105,0.608-0.186c0.2-0.071,0.371-0.206,0.504-0.386c0.128-0.188,0.19-0.493,0.19-0.917
					c0.221-0.518,0.502-0.895,0.837-1.133c0.339-0.234,0.655-0.431,0.971-0.602c0.817-0.375,1.603-0.912,2.341-1.635
					c0.737-0.73,1.521-1.379,2.333-1.96c1.374-1.039,2.742-2.091,4.095-3.161c1.352-1.072,2.763-2.025,4.223-2.871
					c0.303-0.183,0.542-0.359,0.712-0.488c0.175-0.143,0.568-0.313,1.173-0.527c0.482,0.069,0.821,0.064,1.006-0.007
					c0.185-0.079,0.302-0.161,0.354-0.25c0.034-0.11,0.07-0.213,0.073-0.347c0.018-0.116,0.092-0.213,0.229-0.301
					c0.31-0.139,0.591-0.274,0.887-0.402c0.281-0.137,0.562-0.264,0.837-0.37c1.866-0.83,3.597-1.489,5.2-1.952
					c1.595-0.459,3.101-0.816,4.522-1.033c0.901-0.15,1.77-0.242,2.575-0.274c0.809-0.039,1.528,0,2.166,0.125
					c0.641,0.123,1.161,0.367,1.56,0.727c0.41,0.356,0.67,0.865,0.77,1.506c0.107,0.703-0.011,1.492-0.364,2.369
					c-0.363,0.872-0.894,1.684-1.545,2.414c-0.531,0.118-0.759,0.021-0.706-0.295c0.05-0.307,0.186-0.725,0.388-1.24
					c0.2-0.513,0.385-1.061,0.527-1.638c0.146-0.584,0.075-1.102-0.242-1.563c-0.698-0.595-1.307-0.99-1.841-1.204
					c-0.535-0.214-1.204-0.26-1.995-0.143c-0.353,0.059-0.809,0.199-1.368,0.438c-0.534,0.235-1.14,0.5-1.806,0.794
					c-0.659,0.29-1.353,0.575-2.062,0.871c-0.705,0.29-1.393,0.528-2.062,0.689c-0.926,0.235-2.019,0.719-3.276,1.442
					c-1.25,0.73-2.622,1.627-4.104,2.692c-1.464,1.075-3.009,2.254-4.613,3.561c-1.594,1.303-3.216,2.688-4.82,4.116
					c-0.947,0.876-1.882,1.759-2.808,2.664c-0.931,0.898-1.829,1.809-2.712,2.734c-0.269,0.287-0.445,0.514-0.569,0.698
					c-0.125,0.192-0.281,0.385-0.477,0.602c-0.189,0.209-0.452,0.473-0.776,0.78c-0.328,0.303-0.826,0.734-1.491,1.3
					c-0.439,0.586-0.828,1.156-1.155,1.721c-0.313,0.562-0.673,1.114-1.068,1.67c-0.681,0.976-1.332,1.883-1.941,2.708
					c-0.616,0.813-1,1.743-1.165,2.803c-0.317,0.829-0.548,1.629-0.688,2.392c-0.128,0.766-0.151,1.484-0.036,2.154
					c0.132,0.852,0.332,1.455,0.618,1.787c0.289,0.326,0.589,0.528,0.914,0.595c0.324,0.064,0.637,0.054,0.938-0.054
					c0.297-0.106,0.558-0.185,0.757-0.215c0.743-0.123,1.61-0.372,2.625-0.773c1.002-0.403,2.101-0.91,3.304-1.525
					c0.73-0.387,1.457-0.801,2.188-1.227c0.721-0.434,1.496-0.923,2.27-1.477c0.324-0.214,0.665-0.466,1.001-0.694
					c0.342-0.242,0.69-0.472,1.036-0.705c0.167-0.132,0.356-0.203,0.597-0.258c0.236-0.048,0.443-0.108,0.653-0.165
					c0.194-0.064,0.367-0.181,0.511-0.336c0.133-0.159,0.197-0.411,0.181-0.735c0.561-0.443,1.124-0.909,1.681-1.35
					c0.563-0.448,1.117-0.916,1.685-1.4c1.479-1.261,2.962-2.543,4.424-3.872c1.465-1.313,2.953-2.626,4.478-3.916
					c0.363-0.341,0.716-0.553,1.047-0.663c0.321-0.117,0.67-0.339,1.047-0.664c0.402-0.34,0.826-0.826,1.282-1.451
					c0.459-0.634,0.869-1.114,1.243-1.438c0.289-0.262,0.616-0.486,0.983-0.654c0.359-0.187,0.684-0.397,0.976-0.661
					c0.769-0.666,1.442-1.298,2.033-1.91c0.58-0.604,1.193-1.191,1.816-1.777c1.852-1.679,3.418-3.1,4.704-4.27
					c1.304-1.181,2.155-1.939,2.586-2.281c0.295-0.229,0.57-0.229,0.809-0.03C52.336,28.732,52.657,28.965,53.027,29.245"/>
				<path d="M77.998,10.383c0.061,0.169-0.046,0.548-0.296,1.134c-0.253,0.584-0.559,1.208-0.908,1.888
					c-0.338,0.666-0.691,1.303-1.058,1.925c-0.377,0.625-0.645,1.084-0.816,1.371c-1.624,2.684-3.294,5.482-5.021,8.427
					c-1.713,2.945-3.443,5.879-5.178,8.811c-0.107,0.238-0.31,0.463-0.57,0.69c-0.26,0.214-0.495,0.464-0.695,0.737
					c-1.228,1.944-2.521,3.661-3.867,5.165c-1.339,1.489-2.667,2.915-3.957,4.279c-0.278,0.306-0.587,0.694-0.901,1.15
					c-0.321,0.456-0.663,0.865-1.026,1.228c-0.869,0.825-1.77,1.657-2.714,2.479c-0.94,0.828-1.755,1.793-2.468,2.867
					c-0.064,0.124-0.117,0.306-0.135,0.509c-0.032,0.217,0.011,0.431,0.097,0.627c0.067,0.199,0.252,0.376,0.577,0.513
					c0.328,0.153,0.608,0.225,0.851,0.207c1.443-0.04,3.017-0.438,4.726-1.155c1.713-0.724,3.288-1.694,4.726-2.92
					c0.32-0.26,0.552-0.395,0.69-0.4c0.161-0.009,0.264,0.034,0.346,0.141c0.075,0.109,0.1,0.289,0.082,0.531
					c-0.31,0.291-0.709,0.627-1.171,1.021c-0.463,0.396-0.916,0.766-1.354,1.119c-0.442,0.363-0.837,0.669-1.189,0.921
					c-0.363,0.254-0.587,0.389-0.715,0.403c-0.232,0.035-0.467,0.15-0.702,0.339c-0.257,0.188-0.577,0.389-0.976,0.583
					c-0.406,0.198-0.919,0.399-1.549,0.561c-0.613,0.183-1.424,0.256-2.422,0.227c-0.915-0.009-1.595-0.135-2.051-0.388
					c-0.474-0.261-0.844-0.538-1.136-0.842c-0.292-0.302-0.523-0.592-0.727-0.86c-0.196-0.274-0.474-0.417-0.833-0.467
					c-0.124,0-0.413,0.143-0.848,0.437c-0.431,0.299-0.951,0.667-1.556,1.091c-0.62,0.421-1.271,0.86-1.965,1.304
					c-0.712,0.438-1.375,0.8-2.037,1.047c-0.054-0.021-0.118-0.067-0.167-0.155c-0.036-0.053-0.064-0.108-0.107-0.165
					c-0.046-0.05-0.046-0.11-0.025-0.164c-0.231-0.104-0.192-0.26,0.096-0.5c0.296-0.24,0.677-0.506,1.146-0.785
					c0.47-0.299,0.944-0.581,1.428-0.844c0.484-0.285,0.816-0.503,0.994-0.688c0.356-0.296,0.769-0.625,1.271-1.005
					c0.491-0.382,0.879-0.723,1.179-1.007c0.281-0.289,0.516-0.531,0.698-0.738c0.171-0.217,0.306-0.493,0.402-0.835
					c0.232-0.824,0.562-1.641,0.969-2.458c0.414-0.827,0.819-1.621,1.204-2.37c0.406-0.696,0.776-1.42,1.104-2.192
					c0.324-0.766,0.676-1.535,1.036-2.325c0.356-0.809,0.759-1.599,1.225-2.397c0.459-0.804,1.025-1.595,1.681-2.396
					c0.025-0.032,0.093-0.082,0.196-0.15c0.117-0.06,0.238-0.128,0.381-0.213c0.135-0.09,0.256-0.168,0.381-0.258
					c0.124-0.09,0.207-0.191,0.249-0.298c0.705-1.647,1.545-3.152,2.514-4.516c0.979-1.364,1.845-2.658,2.618-3.9
					c0.171-0.265,0.559-0.794,1.2-1.595c0.623-0.791,1.321-1.67,2.094-2.612c0.773-0.96,1.539-1.917,2.3-2.886
					c0.77-0.962,1.403-1.749,1.909-2.39c0.409-0.477,0.894-0.968,1.442-1.437c0.562-0.482,0.972-0.881,1.261-1.195
					c0.791-0.89,1.439-1.617,1.934-2.197c0.491-0.574,0.968-1.041,1.411-1.414c0.445-0.371,0.901-0.652,1.406-0.866
					c0.484-0.183,1.118-0.349,1.888-0.473c0.235-0.032,0.509,0.021,0.837,0.16C77.731,9.968,77.927,10.153,77.998,10.383
					 M74.586,13.137l-0.612,0.102c-1.282,1.625-2.486,3.146-3.625,4.548c-1.136,1.43-2.226,2.84-3.312,4.244
					c-1.064,1.409-2.14,2.841-3.205,4.269c-1.079,1.438-2.176,2.97-3.28,4.608c-1.118,1.649-2.282,3.416-3.504,5.317
					c-1.214,1.901-2.518,4.003-3.903,6.306c-0.235,0.396-0.502,0.804-0.779,1.24c-0.282,0.406-0.545,0.815-0.819,1.227
					c-0.267,0.404-0.517,0.775-0.755,1.117c-0.224,0.338-0.395,0.598-0.477,0.797c-0.05,0.125-0.118,0.257-0.21,0.405
					c-0.1,0.126-0.164,0.265-0.21,0.409c-0.028,0.137-0.028,0.276-0.007,0.405c0.036,0.136,0.167,0.266,0.406,0.41
					c0.759-0.782,1.549-1.501,2.375-2.135c0.837-0.65,1.588-1.317,2.265-1.991c0.214-0.188,0.381-0.448,0.488-0.788
					c0.121-0.323,0.253-0.563,0.413-0.715c0.363-0.331,0.751-0.662,1.158-0.978c0.398-0.321,0.733-0.646,1.011-0.995
					c0.417-0.491,0.772-1.043,1.111-1.624c0.316-0.599,0.583-0.986,0.804-1.168c0.677-0.653,1.3-1.364,1.87-2.159
					c0.573-0.775,1.114-1.566,1.62-2.331c0.25-0.371,0.438-0.776,0.598-1.225c0.16-0.456,0.374-0.832,0.655-1.15
					c0.182-0.187,0.353-0.293,0.505-0.338c0.167-0.036,0.332-0.071,0.517-0.092c-0.153-0.404-0.153-0.784-0.01-1.161
					c0.153-0.363,0.377-0.716,0.672-1.054c0.289-0.34,0.602-0.646,0.919-0.942c0.31-0.287,0.542-0.545,0.691-0.785
					c0.196-0.267,0.292-0.556,0.317-0.862c0-0.306,0.064-0.579,0.182-0.84c0.103-0.264,0.324-0.495,0.655-0.719
					c0.317-0.217,0.534-0.424,0.663-0.627c0.295-0.463,0.552-0.994,0.801-1.574c0.224-0.569,0.474-1.054,0.708-1.435
					c0.225-0.361,0.523-0.783,0.937-1.3c0.399-0.5,0.669-0.955,0.812-1.364c0.139-0.331,0.306-0.702,0.502-1.148
					c0.207-0.436,0.399-0.869,0.616-1.284c0.196-0.434,0.377-0.843,0.57-1.232c0.182-0.396,0.313-0.73,0.424-1.011L74.586,13.137z"
					/>
				<path d="M104.725,23.383c0.267-0.018,0.42,0.069,0.441,0.239c0.032,0.176-0.032,0.384-0.175,0.601
					c-0.149,0.214-0.355,0.41-0.648,0.595c-0.289,0.182-0.63,0.256-1.029,0.235c-2.105,0.213-3.914,0.424-5.392,0.646
					c-1.496,0.229-2.742,0.439-3.775,0.632c-1.022,0.181-1.87,0.353-2.546,0.488c-0.669,0.141-1.243,0.244-1.717,0.315
					c-0.79,0.129-1.527,0.3-2.2,0.486c-0.681,0.203-1.204,0.498-1.567,0.875c-0.41,0.44-0.78,0.855-1.104,1.244
					c-0.332,0.409-0.648,0.804-0.972,1.198c-0.31,0.397-0.623,0.792-0.937,1.191c-0.321,0.4-0.666,0.819-1.051,1.278
					c-1.296,1.537-2.585,3.116-3.878,4.751c-1.307,1.634-2.554,3.254-3.779,4.837c-0.723,0.928-1.445,1.762-2.161,2.509
					c-0.709,0.746-1.421,1.495-2.13,2.247c-0.708,0.733-1.417,1.527-2.123,2.344c-0.694,0.822-1.385,1.755-2.062,2.798
					c-0.355,0.413-0.694,0.873-1.004,1.357c-0.317,0.48-0.627,0.997-0.933,1.533c-0.31,0.536-0.62,1.051-0.933,1.551
					c-0.31,0.498-0.626,0.955-0.954,1.368c0.018,0.124,0.014,0.245-0.014,0.384c-0.029,0.145-0.007,0.267,0.042,0.385
					c0.05,0.106,0.121,0.199,0.246,0.251c0.113,0.057,0.331,0.062,0.651,0.013c1.036-0.17,2.041-0.568,3.023-1.231
					c0.979-0.656,2.012-1.391,3.087-2.223c0.688-0.564,1.4-1.129,2.13-1.704c0.712-0.564,1.474-1.092,2.271-1.583
					c0.225,0.089,0.264,0.21,0.139,0.413c-0.143,0.178-0.338,0.4-0.599,0.658c-0.562,0.78-1.371,1.593-2.414,2.441
					c-1.043,0.85-2.112,1.607-3.215,2.306c-1.09,0.684-2.112,1.259-3.045,1.743c-0.929,0.479-1.56,0.765-1.873,0.83
					c-0.445,0.109-0.873,0.086-1.286-0.065c-0.417-0.17-0.783-0.402-1.111-0.696c-0.317-0.306-0.584-0.638-0.78-1.01
					c-0.228-0.359-0.345-0.723-0.41-1.047c-0.082-0.525,0.05-1.107,0.388-1.732c0.335-0.621,0.773-1.277,1.321-1.944
					c0.531-0.688,1.118-1.362,1.734-2.024c0.617-0.67,1.172-1.33,1.678-1.988c0.228-0.306,0.459-0.626,0.712-0.963
					c0.239-0.344,0.452-0.667,0.616-0.965c0.167-0.301,0.242-0.554,0.252-0.79c0.007-0.223-0.113-0.361-0.359-0.408
					c-0.399,0.324-0.833,0.687-1.3,1.062c-0.47,0.37-0.961,0.779-1.467,1.182c-0.943,0.744-1.66,1.279-2.161,1.579
					c-0.52,0.319-0.926,0.516-1.243,0.612c-0.317,0.092-0.574,0.148-0.77,0.168c-0.189,0.013-0.438,0.095-0.751,0.229
					c-0.31,0.323-0.62,0.585-0.919,0.78c-0.267,0.201-0.566,0.356-0.879,0.48c-0.303,0.122-0.609,0.122-0.887,0.033
					c-0.061-0.178-0.093-0.312-0.079-0.448c0.018-0.303,0.139-0.495,0.356-0.595c0.217-0.157,0.602-0.322,1.146-0.499
					c0.538-0.176,0.986-0.381,1.339-0.62c0.612-0.4,1.271-0.826,2.001-1.271c0.73-0.449,1.471-0.919,2.226-1.408
					c0.745-0.495,1.471-1.003,2.19-1.542c0.72-0.515,1.364-1.025,1.959-1.544c0.918-0.809,1.852-1.662,2.753-2.543
					c0.918-0.877,1.862-1.794,2.827-2.738c1.724-1.717,3.433-3.504,5.125-5.362c1.695-1.851,3.386-3.749,5.064-5.709
					c0-0.18-0.125-0.285-0.367-0.328c-0.252-0.036-0.552-0.024-0.926,0.018c-0.37,0.039-0.762,0.089-1.168,0.16
					c-0.414,0.066-0.794,0.107-1.118,0.126c-0.264,0.016-0.52,0.039-0.734,0.065c-0.213,0.04-0.306-0.074-0.256-0.352
					c0.271-0.174,0.666-0.313,1.189-0.42c0.527-0.118,1.076-0.225,1.646-0.333c0.58-0.105,1.15-0.238,1.727-0.39
					c0.587-0.146,1.079-0.367,1.474-0.689c0.784-0.571,1.51-1.248,2.187-2.014c0.648-0.768,1.303-1.569,1.934-2.391
					c0.644-0.828,1.271-1.629,1.887-2.423c0.609-0.794,1.254-1.496,1.944-2.119c0.143,0.1,0.271,0.16,0.382,0.184
					c0.128,0.028,0.245,0.073,0.342,0.133c0.11,0.053,0.199,0.15,0.278,0.267c0.075,0.13,0.139,0.351,0.188,0.673
					c0.057,0.322-0.085,0.698-0.427,1.115c-0.335,0.413-0.737,0.865-1.165,1.363c-0.441,0.494-0.858,0.979-1.261,1.482
					c-0.399,0.498-0.659,0.986-0.766,1.46c-0.103,0.463,0,0.751,0.321,0.851c0.313,0.103,0.801,0.103,1.446,0
					c0.146-0.025,0.431-0.061,0.872-0.119c0.42-0.046,0.937-0.108,1.549-0.176c0.609-0.064,1.268-0.143,1.973-0.244
					c0.716-0.095,1.436-0.194,2.158-0.322c0.716-0.1,1.46-0.26,2.233-0.422c0.762-0.162,1.51-0.346,2.222-0.529
					c0.705-0.192,1.346-0.363,1.901-0.507C104.055,23.561,104.458,23.452,104.725,23.383 M76.987,29.957
					c-0.645,0.1-1.467,0.281-2.461,0.523c-0.983,0.253-1.962,0.499-2.974,0.769c-0.979,0.267-1.913,0.515-2.752,0.727
					c-0.833,0.225-1.417,0.374-1.745,0.42c-0.609,0.092-1.171,0.178-1.67,0.263c-0.509,0.084-0.866,0.273-1.086,0.579
					c-0.669,0.169-1.303,0.327-1.926,0.488c-0.51,0.145-1.036,0.29-1.599,0.433c-0.542,0.153-0.976,0.274-1.3,0.385
					c-0.385,0.037-0.773,0.057-1.186,0.085c-0.392,0.015-0.77,0.015-1.107-0.016c-0.328-0.016-0.605-0.069-0.805-0.108
					c-0.213-0.071-0.284-0.172-0.256-0.328c-0.089-0.16,0-0.316,0.26-0.45c0.274-0.139,0.634-0.258,1.104-0.347
					c0.466-0.121,0.986-0.225,1.578-0.313c0.595-0.125,1.171-0.244,1.741-0.406c1.054-0.252,2.168-0.509,3.348-0.778
					c1.179-0.262,2.283-0.508,3.333-0.737c1.014-0.217,1.916-0.404,2.66-0.554c0.748-0.15,1.222-0.238,1.425-0.267l4.683-0.972
					c0.11,0.007,0.207,0.062,0.338,0.125c0.071,0.054,0.149,0.114,0.246,0.193C76.923,29.74,76.972,29.834,76.987,29.957
					 M78.357,49.687c-0.203,0.251-0.526,0.456-0.965,0.636c-0.434,0.173-0.805,0.385-1.107,0.609
					c-0.292,0.256-0.548,0.534-0.812,0.851c-0.242,0.307-0.556,0.599-0.947,0.876c-0.217,0.121-0.363,0.138-0.427,0.022
					c-0.057-0.107-0.032-0.232,0.096-0.378c0.388-0.432,0.837-0.893,1.346-1.391c0.51-0.501,0.994-0.964,1.446-1.388
					c0.466-0.424,0.876-0.783,1.257-1.066c0.377-0.315,0.637-0.488,0.772-0.543c0.445,0.086,0.548,0.273,0.328,0.588
					C79.12,48.813,78.789,49.202,78.357,49.687"/>
				<path d="M97.186,32.364c0.089,0.135,0.125,0.331,0.139,0.584c0.018,0.257-0.067,0.604-0.242,1.027
					c-0.167,0.436-0.449,0.991-0.844,1.663c-0.381,0.662-0.968,1.477-1.709,2.441c-0.883,1.14-1.852,2.158-2.913,3.06
					c-1.072,0.914-2.02,1.826-2.875,2.748c-0.153,0.168-0.366,0.382-0.641,0.616c-0.278,0.232-0.388,0.627-0.296,1.161
					c0.128,0.221,0.242,0.467,0.338,0.741c0.114,0.267,0.232,0.516,0.342,0.723c0.135,0.228,0.302,0.42,0.505,0.577
					c0.207,0.171,0.484,0.267,0.819,0.308c0.612,0.054,1.207,0.041,1.788-0.012c0.562-0.064,1.1-0.258,1.552-0.609
					c0.777-0.613,1.642-1.026,2.575-1.243c0.961-0.234,1.774-0.445,2.468-0.645c0.263-0.402,0.527-0.735,0.794-0.99
					c0.26-0.245,0.538-0.477,0.83-0.698c0.296-0.202,0.623-0.42,0.962-0.651c0.342-0.21,0.74-0.505,1.204-0.847
					c0.189-0.148,0.392-0.36,0.626-0.635c0.221-0.281,0.474-0.577,0.73-0.888c0.271-0.315,0.573-0.619,0.879-0.903
					c0.32-0.299,0.641-0.538,0.979-0.705c0.364-0.182,0.638-0.173,0.841,0.032c0.192,0.197,0.064,0.502-0.377,0.928
					c-0.463,0.44-0.951,0.917-1.442,1.44c-0.491,0.509-0.962,0.993-1.396,1.439c-0.449,0.459-0.858,0.832-1.24,1.191
					c-0.388,0.346-0.697,0.592-0.954,0.724l-1.62,1.113c-0.662,0.648-1.356,1.18-2.115,1.597c-0.737,0.424-1.493,0.776-2.244,1.062
					c-0.758,0.291-1.496,0.505-2.19,0.673c-0.734,0.16-1.354,0.271-1.874,0.354c-0.441,0.076-0.944,0.059-1.503-0.054
					c-0.559-0.095-1.104-0.288-1.648-0.555c-0.544-0.263-1.051-0.592-1.524-1c-0.477-0.407-0.833-0.862-1.097-1.363
					c-0.367,0.355-0.684,0.572-0.908,0.637c-0.25,0.075-0.459,0.099-0.666,0.088c-0.157-0.013-0.353-0.034-0.538-0.041
					c-0.171-0.03-0.402,0.028-0.648,0.163c-0.723,0.417-1.317,0.816-1.781,1.211c-0.473,0.388-1.04,0.773-1.738,1.157
					c-0.395,0.212-0.758,0.398-1.115,0.562c-0.342,0.161-0.708,0.146-1.061-0.078c-0.164-0.396-0.085-0.662,0.203-0.801
					c0.295-0.143,0.712-0.331,1.25-0.566c0.826-0.367,1.556-0.778,2.211-1.204c0.649-0.438,1.339-0.931,2.069-1.464
					c0.321-0.235,0.57-0.457,0.727-0.654c0.175-0.221,0.285-0.417,0.385-0.612c0.078-0.195,0.156-0.389,0.228-0.581
					c0.054-0.188,0.104-0.388,0.167-0.612c0.125-0.347,0.2-0.73,0.225-1.144c0.021-0.413,0.053-0.824,0.085-1.235
					c0.018-0.406,0.061-0.828,0.15-1.265c0.089-0.438,0.253-0.851,0.484-1.263c0.121-0.197,0.249-0.514,0.392-0.941
					c0.146-0.42,0.313-0.89,0.535-1.393c0.199-0.504,0.445-1.018,0.744-1.536c0.296-0.536,0.663-1.015,1.104-1.444
					c0.663-0.622,1.24-1.152,1.766-1.601c0.513-0.441,1.008-0.817,1.46-1.113c0.474-0.299,0.937-0.531,1.414-0.705
					c0.47-0.175,0.976-0.285,1.506-0.367c0.548-0.089,1.004-0.096,1.382-0.015c0.36,0.079,0.762,0.161,1.236,0.285
					c0.463,0.634,0.77,1.14,0.922,1.51C97.093,31.983,97.161,32.175,97.186,32.364 M93.987,35.084
					c0.082-0.312,0.04-0.58-0.121-0.822c-0.157-0.232-0.385-0.376-0.702-0.43c-0.303-0.051-0.673,0-1.097,0.143
					c-0.434,0.166-0.872,0.501-1.35,0.991c-0.327,0.414-0.609,0.775-0.875,1.039c-0.246,0.286-0.499,0.593-0.73,0.896
					c-0.235,0.308-0.47,0.673-0.691,1.109C88.201,38.429,87.98,39,87.713,39.7c-0.054,0.38-0.128,0.78-0.228,1.224
					c-0.1,0.426-0.146,0.784-0.146,1.082c0,0.281,0.085,0.46,0.246,0.529c0.16,0.054,0.452-0.091,0.879-0.463
					c0.673-0.681,1.282-1.3,1.852-1.855c0.563-0.556,1.061-1.101,1.507-1.624c0.445-0.513,0.847-1.058,1.21-1.622
					C93.4,36.426,93.709,35.787,93.987,35.084"/>
				<path d="M118.944,30.623c0.071,0.417-0.153,1.146-0.662,2.211c-0.506,1.058-1.118,2.244-1.812,3.525
					c-0.709,1.29-1.414,2.565-2.126,3.843c-0.723,1.271-1.257,2.333-1.603,3.171c-0.028,0.162,0.057,0.36,0.278,0.594
					c0.214,0.233,0.502,0.321,0.852,0.274c0.381-0.064,0.691-0.136,0.918-0.192c0.231-0.075,0.542-0.134,0.926-0.189
					c0.414-0.074,0.677-0.112,0.815-0.136c0.128-0.021,0.385-0.131,0.73-0.345c0.392-0.218,0.794-0.479,1.197-0.798
					c0.388-0.32,0.783-0.646,1.175-0.986c0.381-0.327,0.734-0.623,1.04-0.878c0.299-0.262,0.527-0.447,0.698-0.569
					c0.456,0.02,0.627,0.166,0.524,0.437c-0.114,0.274-0.349,0.602-0.706,0.95c-0.37,0.36-0.794,0.727-1.257,1.104
					c-0.47,0.378-0.851,0.677-1.143,0.905c-0.509,0.416-1.075,0.787-1.677,1.133c-0.616,0.342-1.214,0.638-1.788,0.913
					c-0.613,0.276-1.161,0.502-1.695,0.679c-0.531,0.179-0.969,0.29-1.311,0.342c-0.185,0.027-0.363-0.011-0.526-0.116
					c-0.175-0.123-0.385-0.229-0.63-0.376c-0.25-0.149-0.542-0.273-0.895-0.402c-0.363-0.126-0.812-0.171-1.389-0.131
					c-0.05-1.147,0.242-2.317,0.88-3.498c0.645-1.186,1.403-2.421,2.276-3.692c0.883-1.269,1.77-2.594,2.631-3.972
					c0.865-1.363,1.5-2.809,1.849-4.313c-0.061,0.005-0.083-0.034-0.083-0.13c0-0.082-0.032-0.178-0.075-0.285
					c-0.039-0.092-0.139-0.16-0.253-0.197c-0.128-0.045-0.37-0.02-0.719,0.059c-0.231,0.082-0.531,0.271-0.904,0.602
					c-0.392,0.338-0.809,0.727-1.254,1.191c-0.441,0.468-0.873,0.96-1.321,1.486c-0.438,0.515-0.858,0.999-1.218,1.45
					c-0.37,0.459-0.68,0.844-0.944,1.178c-0.271,0.325-0.438,0.526-0.516,0.596c-1.214,1.093-2.133,2.03-2.752,2.792
					c-0.613,0.757-1.133,1.42-1.56,1.986c-0.424,0.566-0.844,1.059-1.293,1.475c-0.424,0.417-1.03,0.819-1.809,1.214
					c-0.484-0.159-0.627-0.345-0.445-0.528c0.185-0.201,0.581-0.605,1.204-1.22c0.135-0.136,0.332-0.339,0.612-0.569
					c0.285-0.246,0.574-0.506,0.876-0.802c0.299-0.285,0.587-0.591,0.869-0.926c0.278-0.324,0.488-0.637,0.627-0.937
					c0.225-0.455,0.374-0.74,0.445-0.837c0.075-0.11,0.143-0.157,0.221-0.174c0.078-0.011,0.192-0.036,0.377-0.058
					c0.174-0.028,0.495-0.201,0.955-0.513c0.061-0.075,0.061-0.146,0.032-0.235c-0.032-0.082-0.067-0.178-0.135-0.296
					c-0.068-0.106-0.11-0.241-0.157-0.381c-0.039-0.149-0.018-0.303,0.046-0.466c0.334-0.371,0.719-0.702,1.161-0.971
					c0.428-0.266,0.865-0.525,1.282-0.765c0.121-0.149,0.174-0.324,0.164-0.549c-0.032-0.223-0.022-0.389,0.028-0.477
					c0.879-1.167,1.83-2.353,2.881-3.563c1.047-1.196,2.151-2.329,3.309-3.351l1.011-0.162c0.182,0.125,0.364,0.333,0.556,0.614
					c0.192,0.281,0.285,0.515,0.246,0.661c-0.074,0.279-0.199,0.55-0.377,0.785c-0.178,0.242-0.235,0.548-0.167,0.931
					c0.024,0.183,0.11,0.343,0.263,0.508c0.128,0.153,0.31,0.295,0.495,0.43c0.186,0.145,0.349,0.292,0.502,0.438
					C118.837,30.277,118.919,30.446,118.944,30.623"/>
				<path d="M121.893,41.464c-0.837,0.621-1.486,1.065-1.931,1.33c-0.463,0.269-0.776,0.409-0.972,0.409
					c-0.174,0-0.345-0.057-0.505-0.141c-0.221-0.25-0.321-0.475-0.289-0.667c0.024-0.204,0.131-0.385,0.278-0.538
					c0.146-0.167,0.363-0.303,0.612-0.394c0.256-0.111,0.502-0.173,0.744-0.205c0.228-0.039,0.399-0.071,0.495-0.108
					c0.1-0.028,0.2-0.048,0.26-0.064c0.082-0.016,0.167-0.033,0.264-0.062c0.11-0.031,0.267-0.063,0.505-0.101
					c0.502-0.073,0.794-0.266,0.908-0.554c0.1-0.281,0.139-0.514,0.114-0.689c0.282-0.144,0.57-0.305,0.869-0.508
					c0.274-0.191,0.598-0.42,0.961-0.669c0.37-0.257,0.762-0.588,1.171-0.982c0.591-0.481,1.104-0.971,1.539-1.439
					c0.438-0.481,0.833-0.905,1.136-1.278c0.321-0.363,0.591-0.666,0.823-0.922c0.231-0.243,0.47-0.389,0.709-0.426
					c0.235-0.03,0.409-0.066,0.517-0.128c0.117-0.041,0.199-0.077,0.23-0.1c0.047-0.023,0.09-0.023,0.139,0.009
					c0.049,0.014,0.125,0.062,0.225,0.143c0.154-0.235,0.301-0.451,0.471-0.643c0.172-0.19,0.268-0.365,0.295-0.521
					c0.4-0.488,0.902-0.873,1.475-1.142c0.576-0.276,1.09-0.626,1.531-1.059c0.068-0.077,0.211-0.18,0.41-0.292
					c0.186-0.121,0.402-0.235,0.666-0.346c0.254-0.128,0.506-0.228,0.758-0.33c0.258-0.102,0.5-0.176,0.742-0.21
					c0.238-0.044,0.504-0.02,0.811,0.031c0.314,0.06,0.605,0.153,0.916,0.283c0.289,0.137,0.555,0.301,0.773,0.489
					c0.23,0.195,0.357,0.397,0.395,0.645c0.047,0.276,0.012,0.492-0.1,0.669c-0.1,0.19-0.225,0.374-0.355,0.562
					c-0.139,0.186-0.281,0.388-0.424,0.584c-0.164,0.211-0.262,0.466-0.289,0.778c0.078-0.009,0.227-0.087,0.424-0.198
					c0.189-0.125,0.402-0.271,0.635-0.427c0.227-0.156,0.463-0.327,0.697-0.523c0.246-0.185,0.455-0.365,0.645-0.552
					c0.416-0.396,0.727-0.7,0.936-0.922c0.201-0.219,0.402-0.377,0.561-0.495c0.162-0.122,0.326-0.208,0.504-0.285
					c0.162-0.067,0.428-0.164,0.807-0.285l2.207-0.667c0.008,0.083,0.033,0.147,0.086,0.183c0.049,0.036,0.113,0.082,0.186,0.137
					c0.07,0.052,0.131,0.122,0.191,0.216c0.055,0.091,0.107,0.267,0.146,0.495c0.025,0.212-0.008,0.52-0.125,0.94
					c-0.121,0.406-0.264,0.853-0.451,1.354c-0.168,0.502-0.346,1.021-0.578,1.549c-0.221,0.542-0.424,1.025-0.619,1.485
					c0.1,0.285,0.078,0.672-0.051,1.168c-0.131,0.499-0.238,0.966-0.312,1.434c-0.076,0.469-0.061,0.858,0.049,1.17
					c0.104,0.317,0.48,0.424,1.098,0.339c0.734-0.122,1.367-0.287,1.898-0.488c0.52-0.204,0.994-0.439,1.42-0.705
					c0.424-0.264,0.816-0.55,1.199-0.889c0.361-0.33,0.756-0.703,1.17-1.092c0.594-0.516,1.207-1.114,1.865-1.812
					c0.662-0.688,1.332-1.4,1.994-2.1c0.199-0.137,0.393-0.251,0.582-0.365c0.162-0.093,0.352-0.164,0.529-0.229
					c0.191-0.051,0.359-0.051,0.527,0.015c0.17,0.121,0.299,0.231,0.389,0.347c0.092,0.094,0.178,0.207,0.26,0.322
					c0.066,0.104,0.123,0.218,0.123,0.332c-0.455,0.046-0.918,0.212-1.338,0.494c-0.424,0.265-0.826,0.589-1.219,0.952
					c-0.395,0.363-0.775,0.744-1.178,1.15c-0.395,0.409-0.791,0.749-1.232,1.025c-0.338,0.237-0.615,0.447-0.844,0.638
					c-0.246,0.195-0.496,0.374-0.73,0.562c-0.242,0.183-0.527,0.398-0.814,0.627c-0.289,0.221-0.678,0.476-1.15,0.753
					c-0.6,0.372-1.223,0.729-1.834,1.063c-0.631,0.338-1.203,0.638-1.73,0.877c-0.504,0.259-0.98,0.462-1.361,0.633
					c-0.393,0.164-0.654,0.25-0.766,0.267c-0.092,0.021-0.225,0.032-0.385,0.043c-0.164,0.014-0.35-0.011-0.553-0.071
					c-0.199-0.054-0.412-0.142-0.586-0.288c-0.193-0.13-0.334-0.342-0.441-0.627c-0.242-0.179-0.35-0.592-0.324-1.271
					c0.031-0.677,0.066-1.389,0.127-2.107c0.043-0.726,0.057-1.379,0.033-1.943c-0.033-0.569-0.211-0.846-0.543-0.82
					c-0.447,0.049-0.949,0.288-1.508,0.737c-0.564,0.455-1.137,0.967-1.729,1.542c-0.588,0.562-1.146,1.143-1.678,1.701
					c-0.521,0.566-0.965,0.973-1.312,1.234c-0.652,0.467-1.271,0.949-1.855,1.454c-0.584,0.497-1.111,0.941-1.592,1.347
					c-0.479,0.413-0.895,0.764-1.223,1.033c-0.327,0.281-0.581,0.438-0.77,0.452c-0.438,0.074-0.851,0.182-1.228,0.339
					c-0.392,0.152-0.798,0.029-1.261-0.348c-0.235-0.205-0.363-0.422-0.363-0.646c-0.007-0.221,0.011-0.44,0.082-0.616
					c0.075-0.227,0.203-0.46,0.392-0.698c0.916-0.595,1.727-1.25,2.422-1.951c0.684-0.691,1.313-1.386,1.876-2.08
					c0.576-0.696,1.117-1.387,1.625-2.076c0.516-0.67,1.061-1.307,1.67-1.887c-0.02-0.091,0-0.255,0.035-0.485
					c0.027-0.228,0.027-0.435-0.008-0.628c-0.047-0.194-0.16-0.312-0.342-0.379c-0.17-0.059-0.48,0.021-0.932,0.239
					c-0.189,0.092-0.424,0.246-0.695,0.452c-0.264,0.217-0.533,0.417-0.801,0.62c-0.277,0.217-0.539,0.403-0.791,0.557
					c-0.264,0.162-0.506,0.262-0.706,0.309c-0.245,0.03-0.373,0.1-0.431,0.199c-0.042,0.089-0.075,0.178-0.103,0.279
					c-0.033,0.095-0.075,0.184-0.115,0.287c-0.049,0.096-0.185,0.169-0.419,0.206c-0.229,0.043-0.428,0.107-0.553,0.225
					c-0.136,0.103-0.263,0.247-0.392,0.402c-0.125,0.157-0.26,0.327-0.413,0.517c-0.153,0.195-0.359,0.396-0.62,0.616l-1.852,1.517
					C123.866,39.95,122.736,40.854,121.893,41.464"/>
				<path d="M174.822,24.288c-0.471,1.239-0.883,2.25-1.254,3.003c-0.373,0.751-0.791,1.446-1.242,2.067
					c-0.441,0.636-0.938,1.293-1.518,1.97c-0.572,0.676-1.264,1.569-2.09,2.658l0.562,0.997c0.178,0.121,0.311,0.214,0.42,0.274
					c0.092,0.062,0.314,0.062,0.674,0.005c0.139-0.018,0.387-0.096,0.732-0.185c0.35-0.101,0.725-0.251,1.145-0.435l4.734-3.33
					c0.258-0.334,0.787-0.682,1.227-1.177c0.447-0.497,1.051-0.988,1.527-1.404c0.471-0.437,0.965-0.673,1.385-0.934
					c0.406-0.263,0.781-0.018,0.928,0.118c-0.025,0.276-0.617,0.951-0.859,1.332c-0.238,0.388-0.389,0.349-0.77,0.771
					c-0.385,0.428-0.666,0.613-1.133,1.003c-0.492,0.388-1.277,0.598-1.717,0.885l-0.857,0.862l-1.375,1.024l-1.281,0.836
					c-0.6,0.548-1.297,1.062-2.098,1.538c-0.803,0.471-1.584,0.768-2.344,0.887c-0.156,0.019-0.398,0.051-0.748,0.057
					c-0.338,0.005-0.697-0.006-1.064-0.057c-0.377-0.048-0.73-0.144-1.068-0.282c-0.342-0.141-0.562-0.345-0.658-0.604
					c-0.096-0.219-0.16-0.528-0.197-0.943c-0.027-0.396-0.117-0.79-0.238-1.203l-0.258-0.188l-0.473,0.074
					c-0.18,0.031-0.461,0.191-0.828,0.473c-0.381,0.296-0.826,0.658-1.322,1.097c-0.508,0.431-1.055,0.912-1.662,1.396
					c-0.605,0.48-1.197,0.961-1.795,1.423c-0.582,0.446-1.168,0.838-1.752,1.157c-0.588,0.314-1.127,0.513-1.586,0.589
					c-0.814,0.125-1.605,0.047-2.346-0.249c-0.744-0.289-1.254-0.879-1.5-1.771c-0.135-0.486-0.08-1.087,0.186-1.792
					c0.264-0.703,0.631-1.415,1.068-2.142c0.434-0.708,0.912-1.393,1.389-2.026c0.488-0.642,0.869-1.135,1.143-1.518
					c0.77-0.992,1.629-1.909,2.568-2.738c0.947-0.819,1.906-1.545,2.898-2.158c0.994-0.609,1.988-1.111,2.998-1.489
					c1.014-0.392,1.988-0.655,2.936-0.812c0.787-0.125,1.4-0.203,1.83-0.246c0.428-0.032,0.865-0.018,1.297,0.042
					c0.432,0.067,0.973,0.196,1.619,0.381C172.707,23.716,173.623,23.956,174.822,24.288 M171.408,24.914
					c-0.047-0.203-0.172-0.324-0.387-0.349c-0.213-0.029-0.43-0.035-0.684-0.029c-0.287,0.054-0.602,0.132-0.961,0.207
					c-0.645,0.104-1.432,0.422-2.354,0.957c-0.926,0.554-1.881,1.209-2.875,2.025c-0.988,0.799-1.955,1.693-2.924,2.656
					c-0.957,0.967-1.826,1.932-2.576,2.896c-0.746,0.969-1.344,1.862-1.785,2.702c-0.441,0.837-0.631,1.526-0.58,2.069
					c0.332,0.217,0.732,0.225,1.186,0.011c0.453-0.208,0.895-0.491,1.34-0.876c0.463-0.367,0.904-0.769,1.334-1.204
					c0.436-0.425,0.799-0.755,1.09-0.979c0.271-0.196,0.566-0.428,0.908-0.688c0.334-0.271,0.68-0.531,1.029-0.801
					c0.354-0.26,0.674-0.517,0.998-0.743c0.303-0.239,0.566-0.418,0.783-0.583c0.436-0.304,0.961-0.776,1.566-1.379
					c0.609-0.599,1.232-1.267,1.842-1.963c0.602-0.703,1.186-1.397,1.717-2.106C170.613,26.036,171.051,25.432,171.408,24.914"/>
				<path d="M221.295,4.861c0.264-0.015,0.416,0.075,0.453,0.256c0.014,0.178-0.037,0.37-0.189,0.584
					c-0.143,0.224-0.363,0.42-0.645,0.605c-0.285,0.182-0.635,0.26-1.029,0.229c-2.094,0.217-3.896,0.436-5.395,0.659
					c-1.479,0.22-2.746,0.424-3.768,0.623c-1.029,0.192-1.869,0.354-2.547,0.493c-0.68,0.13-1.242,0.242-1.717,0.313
					c-0.791,0.13-1.523,0.288-2.211,0.486c-0.67,0.203-1.193,0.49-1.549,0.875c-0.418,0.431-0.787,0.841-1.123,1.25
					c-0.32,0.399-0.643,0.793-0.961,1.183c-0.316,0.401-0.631,0.801-0.943,1.196c-0.307,0.406-0.656,0.821-1.047,1.275
					c-1.289,1.524-2.574,3.116-3.875,4.763c-1.293,1.64-2.557,3.246-3.793,4.827c-0.715,0.929-1.434,1.773-2.15,2.511
					c-0.709,0.753-1.414,1.5-2.129,2.243c-0.701,0.745-1.414,1.522-2.115,2.352c-0.703,0.821-1.387,1.75-2.066,2.792
					c-0.363,0.415-0.701,0.867-1.004,1.364c-0.316,0.482-0.629,0.991-0.939,1.523c-0.311,0.522-0.617,1.049-0.924,1.544
					c-0.312,0.51-0.643,0.969-0.957,1.378c0.018,0.126,0.008,0.243-0.012,0.386c-0.027,0.144-0.016,0.277,0.033,0.388
					c0.047,0.104,0.129,0.19,0.248,0.246c0.111,0.061,0.34,0.061,0.656,0.014c1.029-0.167,2.041-0.576,3.016-1.232
					c0.982-0.654,2.012-1.396,3.084-2.229c0.695-0.562,1.414-1.126,2.127-1.698c0.727-0.565,1.496-1.094,2.289-1.581
					c0.221,0.078,0.271,0.225,0.129,0.414c-0.129,0.185-0.336,0.401-0.592,0.66c-0.57,0.789-1.381,1.59-2.414,2.434
					c-1.039,0.855-2.111,1.619-3.215,2.305c-1.105,0.68-2.115,1.264-3.049,1.748c-0.934,0.49-1.561,0.763-1.881,0.844
					c-0.432,0.093-0.857,0.071-1.281-0.089c-0.42-0.16-0.779-0.385-1.107-0.686c-0.318-0.299-0.578-0.636-0.803-1.006
					c-0.199-0.374-0.334-0.723-0.383-1.036c-0.072-0.538,0.045-1.115,0.383-1.753c0.34-0.623,0.777-1.267,1.326-1.946
					c0.547-0.674,1.113-1.347,1.74-2.021c0.613-0.667,1.164-1.328,1.674-1.976c0.223-0.31,0.445-0.634,0.699-0.969
					c0.24-0.356,0.447-0.669,0.619-0.962c0.166-0.299,0.252-0.562,0.256-0.801c0.014-0.21-0.105-0.352-0.367-0.413
					c-0.391,0.342-0.822,0.694-1.295,1.072c-0.463,0.381-0.955,0.766-1.461,1.182c-0.939,0.748-1.656,1.288-2.166,1.585
					c-0.516,0.313-0.918,0.513-1.242,0.609c-0.312,0.093-0.566,0.146-0.766,0.158c-0.188,0.023-0.438,0.095-0.754,0.24
					c-0.314,0.328-0.613,0.577-0.912,0.77c-0.281,0.199-0.562,0.37-0.873,0.491c-0.324,0.118-0.615,0.128-0.912,0.02
					c-0.049-0.156-0.078-0.312-0.059-0.433c0.01-0.308,0.131-0.51,0.355-0.598c0.211-0.16,0.594-0.322,1.139-0.502
					c0.541-0.182,0.994-0.385,1.348-0.627c0.607-0.392,1.268-0.812,2-1.266c0.723-0.447,1.461-0.906,2.211-1.408
					c0.756-0.5,1.49-1.006,2.205-1.531c0.715-0.515,1.361-1.036,1.947-1.542c0.926-0.827,1.85-1.664,2.762-2.554
					c0.904-0.887,1.861-1.795,2.826-2.738c1.721-1.715,3.42-3.502,5.121-5.353c1.691-1.859,3.383-3.764,5.064-5.716
					c0-0.19-0.121-0.295-0.371-0.328c-0.242-0.036-0.551-0.036-0.93,0.007c-0.367,0.046-0.746,0.1-1.164,0.166
					c-0.412,0.066-0.775,0.112-1.104,0.135c-0.273,0.009-0.523,0.03-0.742,0.066c-0.227,0.036-0.309-0.089-0.262-0.367
					c0.273-0.166,0.676-0.306,1.199-0.415c0.523-0.112,1.076-0.223,1.645-0.333c0.574-0.096,1.145-0.233,1.717-0.377
					c0.588-0.16,1.084-0.381,1.479-0.691c0.791-0.579,1.514-1.253,2.18-2.021c0.65-0.766,1.303-1.568,1.943-2.398
					c0.646-0.816,1.266-1.625,1.875-2.417c0.619-0.794,1.271-1.498,1.947-2.114c0.152,0.096,0.27,0.16,0.395,0.178
					c0.125,0.021,0.246,0.073,0.346,0.123c0.09,0.066,0.182,0.157,0.26,0.28c0.09,0.118,0.15,0.353,0.207,0.669
					c0.043,0.328-0.092,0.698-0.445,1.115c-0.338,0.41-0.73,0.873-1.16,1.362c-0.439,0.482-0.852,0.979-1.25,1.49
					c-0.406,0.492-0.666,0.986-0.777,1.453c-0.096,0.472,0,0.758,0.324,0.862c0.311,0.096,0.805,0.096,1.449-0.016
					c0.143-0.013,0.432-0.059,0.861-0.11c0.432-0.052,0.947-0.11,1.557-0.18c0.602-0.071,1.271-0.153,1.963-0.242
					c0.713-0.107,1.445-0.21,2.172-0.328c0.709-0.107,1.445-0.256,2.223-0.409c0.775-0.175,1.523-0.346,2.225-0.545
					c0.713-0.185,1.346-0.358,1.906-0.497C220.621,5.053,221.035,4.939,221.295,4.861 M193.561,11.442
					c-0.645,0.104-1.471,0.275-2.457,0.523c-0.99,0.25-1.977,0.504-2.969,0.768c-1.006,0.266-1.924,0.506-2.764,0.741
					c-0.842,0.221-1.422,0.363-1.752,0.408c-0.609,0.096-1.162,0.189-1.66,0.268c-0.51,0.078-0.873,0.274-1.094,0.58
					c-0.674,0.16-1.293,0.331-1.916,0.477c-0.512,0.143-1.055,0.294-1.6,0.438c-0.547,0.146-0.986,0.281-1.299,0.385
					c-0.387,0.039-0.787,0.064-1.186,0.082c-0.41,0.016-0.781,0.016-1.115,0c-0.334-0.025-0.602-0.071-0.809-0.118
					c-0.199-0.066-0.291-0.18-0.246-0.32c-0.102-0.172,0-0.326,0.26-0.458c0.262-0.141,0.639-0.25,1.098-0.351
					c0.467-0.105,0.994-0.213,1.582-0.324c0.586-0.115,1.178-0.233,1.744-0.384c1.059-0.267,2.158-0.522,3.344-0.787
					c1.184-0.269,2.287-0.502,3.32-0.727c1.021-0.231,1.934-0.422,2.66-0.555c0.758-0.157,1.234-0.25,1.438-0.274l4.689-0.986
					c0.086,0.023,0.199,0.065,0.338,0.135c0.072,0.05,0.141,0.114,0.232,0.192C193.482,11.23,193.539,11.325,193.561,11.442
					 M194.928,31.178c-0.205,0.242-0.529,0.459-0.961,0.638c-0.432,0.171-0.809,0.37-1.107,0.595
					c-0.289,0.271-0.555,0.556-0.809,0.858c-0.252,0.31-0.576,0.602-0.947,0.873c-0.221,0.128-0.363,0.139-0.432,0.021
					c-0.066-0.104-0.035-0.235,0.098-0.371c0.383-0.428,0.836-0.887,1.338-1.396c0.51-0.499,1.004-0.961,1.461-1.375
					c0.463-0.422,0.879-0.784,1.25-1.084c0.373-0.301,0.635-0.486,0.77-0.529c0.445,0.078,0.555,0.267,0.334,0.57
					C195.693,30.292,195.371,30.69,194.928,31.178"/>
				<path d="M205.754,22.827c0.133,0.317,0.029,0.78-0.305,1.396c-0.34,0.601-0.738,1.214-1.209,1.813
					c-0.463,0.605-0.904,1.129-1.332,1.585c-0.42,0.466-0.658,0.705-0.668,0.748c-0.207,0.402-0.496,0.919-0.842,1.553
					c-0.355,0.655-0.709,1.186-1.064,1.599c-0.195,0.274-0.48,0.57-0.848,0.887c-0.377,0.313-0.645,0.687-0.822,1.145
					c0.373,0.183,0.68,0.281,0.93,0.281c0.26,0,0.467,0,0.611-0.027c0.236-0.038,0.561-0.099,0.99-0.199
					c0.41-0.101,0.842-0.154,1.262-0.154c-0.268,0.254-0.57,0.513-0.938,0.802c-0.367,0.28-0.748,0.549-1.172,0.798
					c-0.402,0.242-0.818,0.445-1.203,0.616c-0.398,0.171-0.744,0.279-1.039,0.332c-0.234,0.036-0.514,0.042-0.826,0.036
					c-0.32-0.012-0.627-0.062-0.951-0.149c-0.324-0.084-0.602-0.214-0.875-0.393c-0.275-0.192-0.465-0.442-0.578-0.752
					c-0.27-0.772-0.27-1.506,0-2.222c0.252-0.701,0.645-1.392,1.15-2.08c0.516-0.687,1.061-1.374,1.658-2.08
					c0.607-0.702,1.123-1.392,1.547-2.101c0.164-0.274,0.441-0.57,0.852-0.894c0.408-0.338,0.758-0.741,1.07-1.218
					c0.326-0.438,0.691-0.901,1.098-1.378c0.418-0.474,0.865-0.742,1.367-0.819c0.117-0.025,0.289,0,0.51,0.034
					c0.211,0.034,0.43,0.098,0.652,0.16c0.234,0.077,0.424,0.159,0.615,0.301C205.58,22.558,205.697,22.685,205.754,22.827
					 M204.818,32.047c-0.16,0.167-0.334,0.303-0.527,0.406c-0.199,0.114-0.385,0.207-0.561,0.296
					c-0.191,0.085-0.326,0.22-0.42,0.383l-0.195-0.056c-0.152-0.01-0.293-0.082-0.441-0.207c0.289-0.133,0.58-0.384,0.904-0.748
					c0.328-0.374,0.609-0.577,0.873-0.623l0.662-0.096C205.066,31.675,204.975,31.889,204.818,32.047 M205.334,31.085
					c0.246-0.185,0.531-0.399,0.852-0.605c0.338-0.224,0.691-0.449,1.078-0.691c0.662-0.775,1.211-1.342,1.65-1.713
					c0.43-0.374,0.732-0.552,0.875-0.548c0.299-0.046,0.457-0.004,0.488,0.11c0,0.107-0.039,0.267-0.16,0.454
					c-0.133,0.184-0.295,0.354-0.531,0.536c-0.232,0.167-0.451,0.267-0.652,0.308c-0.217,0.149-0.434,0.357-0.641,0.618
					c-0.225,0.265-0.463,0.513-0.73,0.744c-0.248,0.246-0.572,0.449-0.939,0.609C206.256,31.073,205.828,31.139,205.334,31.085
					 M210.693,15.324c-0.027,0.188-0.104,0.359-0.191,0.517c-0.104,0.153-0.225,0.295-0.342,0.427
					c-0.133,0.146-0.258,0.271-0.371,0.383c-0.117,0.104-0.195,0.188-0.203,0.259c-0.039,0.157-0.082,0.374-0.129,0.651
					c-0.045,0.276-0.119,0.548-0.234,0.801l-0.613,0.107c-0.213,0.028-0.408-0.007-0.602-0.11c-0.209-0.1-0.373-0.239-0.523-0.395
					c-0.139-0.161-0.27-0.303-0.361-0.438c-0.098-0.132-0.15-0.221-0.162-0.242c-0.1-0.263-0.113-0.523-0.027-0.801
					c0.074-0.262,0.205-0.488,0.367-0.708c0.16-0.203,0.348-0.381,0.562-0.529c0.213-0.169,0.428-0.262,0.604-0.292
					c0.232-0.027,0.566,0,1.025,0.108C209.939,15.174,210.338,15.263,210.693,15.324 M222.129,21.563
					c0.027-0.31-0.482-0.652-0.367-0.919c0.125-0.254,0.256-0.495,0.377-0.73c0.125-0.226,0.574-0.459,0.545-0.733l0.277-0.13
					l0.229-0.092c0.107-0.055,0.129,0.003,0.207,0.084c0.021,0.028,0.078,0.069,0.152,0.089c-0.061,0.118-0.135,0.235-0.213,0.372
					c-0.195,0.323-0.395,0.696-0.428,1.037c-0.049,0.68,0.566,1.184,0.324,1.412l-0.182,0.271
					C222.777,22.254,222.09,21.876,222.129,21.563"/>
				<path d="M224.795,21.661c-0.285,0.194-0.285,0.735-0.512,0.901c-0.434,0.326-0.701,0.835-1.332,1.218
					c-0.234,0.133-0.197,0.08-0.527,0.283c-0.334,0.207-0.672,0.484-1.008,0.751c-0.332,0.264-0.994,0.76-1.346,1.069
					c-0.338,0.316-0.951,0.674-1.242,0.937c-0.449,0.377-0.721,0.616-1.293,0.979c-0.479,0.294-0.748,0.506-1.375,0.83
					c-0.463,0.239-1.082,0.377-1.496,0.552c-0.416,0.178-0.477,0.196-1.225,0.573c-0.25,0.118-0.311,0.184-1.023,0.354
					c-0.461,0.112-0.914,0.258-1.562,0.344c-0.484,0.067-0.555,0.171-0.957,0.213c-0.35,0.025-0.58,0.055-0.742-0.249l-0.24-2.042
					c-0.037-0.262,0.078-0.753,0.363-1.465c0.277-0.702,0.65-1.521,1.092-2.457c0.467-0.931,0.955-1.916,1.484-2.949
					c0.525-1.029,1.041-2.019,1.525-2.942c0.484-0.918,0.918-1.712,1.285-2.393c0.381-0.676,0.627-1.132,0.748-1.365
					c0.178-0.373,0.264-0.397,0.264-0.397c-0.043-0.137,0-0.057-0.168-0.26c-0.17-0.196-0.32-0.39-0.43-0.564
					c-0.129-0.18-0.098-0.449,0.092-0.81c0.043-0.104,0.182-0.221,0.414-0.359c0.227-0.15,0.135-0.196,0.424-0.371
					c0.291-0.167,0.277-0.295,0.551-0.413c0.268-0.118,0.396-0.18,0.396-0.18s0.102-0.098,0.807-0.069
					c0.301,0.011,0.838,0.377,0.92,0.413c0.104,0.021,0.465,0.228,0.516,0.42c0.043,0.178-0.039-0.26,0.033,0.178
					c0.059,0.392-0.104,0.996-0.479,1.831c-0.395,0.825-0.875,0.31-1.455,1.371c-0.463,0.317-0.805,0.661-1.045,1.023
					c-0.225,0.364-0.408,0.747-0.555,1.156c-0.15,0.399-0.271,0.791-0.379,1.188c-0.105,0.404-0.262,0.792-0.469,1.181
					c-0.588,1.191-1.111,2.311-1.525,3.365c-0.416,1.066-0.59,1.964-0.543,2.667c0.127,0.103,0.205,0.214,0.23,0.305
					c0.012,0.104,0.029,0.198,0.057,0.293c0.039,0.083,0.09,0.139,0.193,0.16c0.092,0.04,0.281,0.031,0.537-0.012
					c0.209-0.034,0.531-0.215,0.959-0.532c0.43-0.331,0.932-0.751,1.52-1.261c0.57-0.517,1.221-1.111,1.912-1.78
					c0.691-0.663,1.381-1.378,2.084-2.112c0.117-0.146,0.277-0.251,0.463-0.324c0.186-0.075,0.359-0.161,0.527-0.271
					c0.164-0.104,0.295-0.221,0.395-0.377c0.094-0.15,0.135-0.353,0.131-0.634c-0.078-0.26-0.066-0.453,0.029-0.584
					c0.1-0.143,0.238-0.259,0.414-0.335c0.16-0.096,0.348-0.199,0.572-0.301c0.229-0.112,0.428-0.279,0.609-0.486
					c0.584-0.456,1.141-0.958,1.631-1.506c0.502-0.538,0.947-1.049,1.324-1.542c0.375-0.48,0.686-0.891,0.938-1.23
					c0.244-0.342,0.402-0.557,0.477-0.663c0.285-0.324,0.527-0.561,0.756-0.696c0.152-0.088,2.09-2.524,2.225-2.546
					c0.121-0.014,0.492-0.733,1.094-1.184c0.15-0.112,0.35-0.137,0.475-0.266c1.131-1.155,2.986-3.725,3.141-3.889
					c1.416-1.414,2.471-3.233,2.848-3.543c0.354-0.306,0.605,0.396,1.123,0.366c0.389-0.025,0.826-0.323,0.629,0.236
					c-0.27,0.819-5.131,6.222-5.277,6.742c-0.117,0.445-0.668,0.844-0.867,1.13c-0.275,0.408-0.682,0.931-1.344,1.658
					c-0.318,0.353-0.648,0.787-0.709,0.913c-0.186,0.373-0.779,0.841-1.09,1.286c0.125-0.174-0.252,0.3-0.459,0.632
					c-0.17,0.246-0.359,0.52-0.588,0.84c-0.551,0.755-1.117,1.539-1.715,2.377c-0.59,0.829-1.123,1.617-1.58,2.354
					c-0.451,0.735-0.637,0.871-0.754,1.1c-0.32,0.582-0.51,0.625-0.822,0.979"/>
				<path d="M247.875,7.959c0.072,0.135,0.107,0.336,0.107,0.593c-0.012,0.254-0.107,0.591-0.311,1.019
					c-0.189,0.429-0.512,0.956-0.939,1.597c-0.428,0.645-1.043,1.424-1.844,2.343c-0.945,1.077-1.975,2.037-3.086,2.885
					c-1.121,0.843-2.125,1.712-3.021,2.578c-0.168,0.171-0.389,0.357-0.688,0.577c-0.281,0.224-0.41,0.609-0.354,1.145
					c0.111,0.221,0.211,0.475,0.303,0.757c0.09,0.271,0.182,0.523,0.299,0.754c0.102,0.225,0.264,0.428,0.467,0.606
					c0.186,0.171,0.463,0.285,0.801,0.353c0.592,0.082,1.193,0.117,1.777,0.082c0.584-0.025,1.115-0.201,1.596-0.511
					c0.795-0.571,1.688-0.928,2.639-1.102c0.961-0.175,1.791-0.336,2.496-0.502c0.293-0.385,0.562-0.701,0.848-0.933
					c0.277-0.242,0.574-0.464,0.879-0.648c0.307-0.189,0.643-0.399,0.998-0.593c0.354-0.208,0.77-0.461,1.246-0.783
					c0.193-0.136,0.406-0.339,0.662-0.604c0.236-0.267,0.502-0.548,0.787-0.851c0.289-0.288,0.588-0.573,0.924-0.844
					c0.322-0.274,0.668-0.484,1.01-0.632c0.375-0.169,0.664-0.151,0.844,0.062c0.186,0.207,0.047,0.508-0.426,0.923
					c-0.496,0.4-1.004,0.865-1.525,1.342c-0.525,0.484-1.014,0.937-1.48,1.36c-0.475,0.426-0.9,0.794-1.301,1.111
					c-0.408,0.334-0.74,0.548-1,0.666l-1.688,1.015c-0.695,0.616-1.412,1.104-2.189,1.488c-0.773,0.371-1.539,0.688-2.312,0.924
					c-0.775,0.239-1.506,0.418-2.232,0.538c-0.73,0.114-1.357,0.202-1.885,0.255c-0.443,0.054-0.939-0.007-1.494-0.141
					c-0.557-0.135-1.098-0.353-1.613-0.643c-0.535-0.298-1.016-0.661-1.457-1.099c-0.453-0.425-0.791-0.901-1.033-1.421
					c-0.381,0.34-0.689,0.54-0.951,0.597c-0.238,0.052-0.455,0.061-0.641,0.032c-0.178-0.023-0.363-0.047-0.545-0.079
					c-0.174-0.021-0.398,0.018-0.658,0.128c-0.74,0.381-1.363,0.742-1.842,1.116c-0.494,0.36-1.082,0.716-1.799,1.052
					c-0.402,0.196-0.779,0.36-1.139,0.51c-0.359,0.131-0.719,0.092-1.072-0.15c-0.074-0.207-0.438-0.58,0.107-0.562
					c0.211,0.007,0.295-0.285,0.451-0.356c0.184-0.067,0.311-0.115,0.514-0.188c0.113-0.039,0.252-0.085,0.463-0.164
					c0.826-0.329,1.58-0.691,2.266-1.091c0.676-0.404,1.395-0.835,2.168-1.337c0.332-0.221,0.584-0.417,0.766-0.609
					c0.178-0.199,0.303-0.399,0.406-0.58c0.1-0.193,0.189-0.381,0.256-0.577c0.072-0.178,0.146-0.385,0.211-0.602
					c0.152-0.335,0.234-0.712,0.289-1.122c0.061-0.417,0.098-0.824,0.145-1.229c0.055-0.41,0.137-0.828,0.242-1.259
					c0.109-0.426,0.297-0.842,0.549-1.227c0.127-0.189,0.273-0.497,0.449-0.917c0.16-0.418,0.365-0.885,0.594-1.365
					c0.246-0.492,0.518-0.983,0.844-1.5c0.316-0.506,0.709-0.972,1.184-1.378c0.689-0.569,1.311-1.076,1.852-1.489
					c0.547-0.413,1.061-0.769,1.537-1.023c0.48-0.279,0.965-0.482,1.445-0.616c0.484-0.136,0.988-0.239,1.525-0.283
					c0.551-0.061,1.012-0.043,1.363,0.053c0.363,0.107,0.77,0.213,1.236,0.356c0.424,0.676,0.705,1.195,0.83,1.574
					C247.805,7.567,247.854,7.78,247.875,7.959 M244.539,10.486c0.086-0.304,0.061-0.582-0.082-0.824
					c-0.143-0.235-0.379-0.385-0.68-0.461c-0.311-0.082-0.684-0.046-1.119,0.087c-0.438,0.136-0.896,0.435-1.381,0.908
					c-0.357,0.388-0.678,0.719-0.938,0.979c-0.277,0.272-0.545,0.554-0.797,0.848c-0.258,0.295-0.502,0.644-0.748,1.061
					c-0.242,0.413-0.506,0.965-0.795,1.663c-0.082,0.356-0.188,0.755-0.316,1.19c-0.113,0.431-0.186,0.783-0.199,1.079
					c-0.025,0.289,0.053,0.47,0.209,0.542c0.158,0.078,0.457-0.062,0.898-0.402c0.715-0.645,1.367-1.227,1.965-1.752
					c0.592-0.518,1.129-1.036,1.604-1.524c0.469-0.502,0.908-1.012,1.307-1.549C243.855,11.794,244.219,11.175,244.539,10.486"/>
			</g>
		</g>
		<g>
			<path d="M180.502,58.34h1.076l1.35,3.605l1.355-3.605h1.08v5.305h-0.705v-4.656l-1.363,3.634h-0.721l-1.367-3.634v4.656h-0.705
				V58.34z"/>
			<path d="M186.779,58.34h3.352v0.604h-2.635v1.571h2.529v0.604h-2.529v1.921h2.703v0.605h-3.42V58.34z"/>
			<path d="M194.764,58.34v0.584h-2.674v1.595h1.193c0.592,0,1.047,0.13,1.371,0.388c0.32,0.256,0.48,0.649,0.48,1.175
				c0,0.524-0.156,0.912-0.467,1.172c-0.311,0.258-0.775,0.392-1.385,0.392h-1.908V58.34H194.764z M194.381,62.082
				c0-0.329-0.098-0.577-0.279-0.729c-0.184-0.159-0.469-0.246-0.857-0.246h-1.154v1.944h1.154c0.389,0,0.674-0.079,0.857-0.235
				C194.283,62.657,194.381,62.405,194.381,62.082z"/>
			<path d="M196.363,58.34h3.352v0.604h-2.633v1.571h2.529v0.604h-2.529v1.921h2.697v0.605h-3.416V58.34z"/>
			<path d="M200.541,63.645V63.04c0.52-0.112,0.844-0.366,0.994-0.755c0.205-0.607,0.309-1.627,0.309-3.043V58.34h3.152v5.305
				h-0.719v-4.701h-1.721v0.652c0,1.341-0.113,2.325-0.367,2.948C201.965,63.15,201.414,63.511,200.541,63.645z"/>
			<path d="M206.428,58.34h0.719v2.179h1.182c0.592,0,1.055,0.13,1.375,0.388c0.324,0.256,0.48,0.649,0.48,1.175
				c0,0.524-0.156,0.912-0.48,1.172c-0.32,0.258-0.783,0.392-1.375,0.392h-1.9V58.34z M209.426,62.082
				c0-0.329-0.088-0.577-0.275-0.74c-0.188-0.148-0.469-0.235-0.857-0.235h-1.146v1.944h1.146c0.389,0,0.67-0.079,0.857-0.244
				C209.338,62.657,209.426,62.405,209.426,62.082z"/>
			<path d="M211.416,58.34h0.717v2.175h2.613V58.34h0.705v5.305h-0.705v-2.526h-2.613v2.526h-0.717V58.34z"/>
			<path d="M216.883,58.34h0.721v2.179h1.186c0.598,0,1.057,0.13,1.373,0.388c0.32,0.256,0.484,0.649,0.484,1.175
				c0,0.524-0.164,0.912-0.484,1.172c-0.316,0.258-0.775,0.392-1.373,0.392h-1.906V58.34z M219.885,62.082
				c0-0.329-0.092-0.577-0.277-0.74c-0.182-0.148-0.471-0.235-0.859-0.235h-1.145v1.944h1.145c0.389,0,0.678-0.079,0.859-0.244
				C219.793,62.657,219.885,62.405,219.885,62.082z M221.152,58.34h0.717v5.305h-0.717V58.34z"/>
			<path d="M223.297,58.34h3.354v0.604h-2.631v1.571h2.521v0.604h-2.521v1.921h2.695v0.605h-3.418V58.34z"/>
			<path d="M234.246,58.34v5.305h-0.723v-4.701h-2.602v4.701h-0.713V58.34H234.246z"/>
			<path d="M235.258,63.645V63.04c0.514-0.112,0.844-0.366,0.994-0.755c0.203-0.607,0.307-1.627,0.307-3.043V58.34h3.154v5.305
				h-0.719v-4.701h-1.721v0.652c0,1.341-0.121,2.325-0.359,2.948C236.684,63.15,236.131,63.511,235.258,63.645z"/>
			<path d="M245.154,58.34v5.305h-0.697v-4.442l-2.348,4.442h-0.965V58.34h0.695v4.432l2.35-4.432H245.154z"/>
			<path d="M245.85,58.34h4.479v0.604h-1.879v4.701h-0.719v-4.701h-1.881V58.34z"/>
			<path d="M251.031,58.34h0.711v2.179h1.188c0.59,0,1.053,0.13,1.373,0.388c0.322,0.256,0.48,0.649,0.48,1.175
				c0,0.524-0.158,0.912-0.48,1.172c-0.32,0.258-0.783,0.392-1.373,0.392h-1.898V58.34z M254.025,62.082
				c0-0.329-0.094-0.577-0.277-0.74c-0.186-0.148-0.467-0.235-0.855-0.235h-1.15v1.944h1.15c0.389,0,0.67-0.079,0.855-0.244
				C253.932,62.657,254.025,62.405,254.025,62.082z M255.293,58.34h0.721v5.305h-0.721V58.34z"/>
		</g>
	</g>
</g>
</svg>
