<!DOCTYPE svg PUBLIC "-//W3C//DTD SVG 20010904//EN" "http://www.w3.org/TR/2001/REC-SVG-20010904/DTD/svg10.dtd">
<svg version="1.0" xmlns="http://www.w3.org/2000/svg" width="1600px" height="151px" viewBox="0 0 16000 1510" preserveAspectRatio="xMidYMid meet">
<g id="layer101" fill="#d1d1d1" stroke="none">
 <path d="M7810 1485 c-58 -12 -172 -34 -255 -49 -82 -15 -206 -38 -275 -51 -69 -13 -190 -35 -270 -49 -80 -15 -201 -37 -270 -50 -69 -13 -190 -36 -270 -50 -80 -15 -205 -38 -277 -51 -73 -14 -194 -36 -268 -50 -74 -14 -196 -36 -270 -50 -74 -14 -196 -36 -270 -50 -74 -14 -196 -36 -270 -50 -74 -14 -196 -36 -270 -50 -74 -14 -196 -36 -270 -50 -74 -14 -195 -36 -268 -50 -72 -13 -206 -38 -297 -55 -91 -17 -221 -41 -290 -54 -69 -13 -190 -36 -270 -50 -80 -15 -201 -37 -270 -50 -69 -13 -192 -36 -275 -51 -82 -15 -204 -37 -270 -50 -66 -13 -185 -35 -265 -49 -382 -69 -600 -110 -790 -147 -63 -12 -140 -26 -170 -29 -30 -4 -100 -17 -155 -28 -55 -11 -165 -32 -245 -47 -80 -14 -201 -37 -270 -50 -69 -13 -192 -36 -275 -51 -82 -15 -203 -37 -268 -50 -64 -13 -135 -24 -157 -24 -36 0 -40 -3 -40 -25 l0 -25 8000 0 8000 0 0 25 c0 22 -4 25 -37 25 -21 0 -99 11 -173 26 -181 34 -355 67 -527 98 -79 14 -207 38 -285 52 -79 14 -199 36 -268 49 -69 13 -190 36 -270 50 -80 14 -203 37 -275 50 -71 13 -195 36 -275 51 -80 14 -201 37 -270 50 -69 13 -190 35 -270 49 -80 14 -201 37 -270 50 -69 13 -192 35 -275 50 -82 15 -202 38 -267 51 -64 13 -128 24 -143 24 -14 0 -76 11 -138 24 -62 13 -191 38 -287 55 -96 18 -233 43 -305 56 -210 40 -603 112 -815 150 -80 15 -201 37 -270 50 -69 13 -190 35 -270 50 -161 29 -348 64 -545 100 -71 13 -195 36 -275 50 -80 15 -201 37 -270 50 -69 13 -190 35 -270 50 -80 14 -203 37 -275 50 -71 13 -195 36 -275 50 -80 15 -199 38 -265 51 -144 29 -188 29 -325 -1z"/>
 </g>

</svg>