<svg xmlns="http://www.w3.org/2000/svg" viewBox="0 0 166.05 47.01"><defs><style>.cls-1{isolation:isolate;font-size:44.1px;font-family:Corbel, Corbel;letter-spacing:-0.03em;}.cls-1,.cls-5{fill:#04375f;}.cls-2,.cls-3,.cls-4,.cls-6,.cls-7{fill:none;stroke-miterlimit:10;}.cls-2,.cls-4{stroke:#04375f;}.cls-2,.cls-6{stroke-width:3.5px;}.cls-3,.cls-6,.cls-7{stroke:#fc6a5a;}.cls-4{stroke-width:3px;}.cls-7{stroke-width:0.75px;}.cls-8{fill:#ff6a59;}</style></defs><title>logo contur-z.ru</title><g id="Слой_2" data-name="Слой 2"><g id="Слой_1-2" data-name="Слой 1"><text class="cls-1" transform="translate(22.65 36.46) scale(0.76 1)">ОНТУР</text><line class="cls-2" x1="137.25" y1="2.3" x2="40.95" y2="2.3"/><line class="cls-3" x1="141.95" y1="40" x2="141.95" y2="42.3"/><line class="cls-4" x1="125.85" y1="41.6" x2="23.05" y2="41.6"/><line class="cls-2" x1="1.75" y1="0.5" x2="1.75" y2="43.1"/><g id="_Группа_" data-name="&lt;Группа&gt;"><polygon class="cls-5" points="27.45 43.1 22.65 43.1 3.55 22.3 3.55 22.3 3.55 21.6 3.65 21.7 21.85 0.5 26.55 0.5 8.05 21.8 27.45 43.1"/></g><line class="cls-6" x1="137.25" y1="2.3" x2="163.25" y2="2.3"/><line class="cls-6" x1="164.51" y1="2.97" x2="138.75" y2="40.6"/><line class="cls-6" x1="137.25" y1="41.3" x2="166.05" y2="41.3"/><line class="cls-7" x1="138.75" y1="40.2" x2="138.75" y2="42.3"/><line class="cls-2" x1="125.85" y1="22" x2="136.15" y2="22"/><rect class="cls-8" x="163.19" y="0.55" width="2.76" height="3.42"/></g></g></svg>